<?xml version="1.0" encoding="UTF-8"?> <svg xmlns="http://www.w3.org/2000/svg" width="242" height="44" viewBox="0 0 242 44" fill="none"><g clip-path="url(#clip0_1_588)"><path d="M229.32 0H11.62C5.21 0 0 5.21 0 11.62V31.99C0 38.4 5.21 43.61 11.62 43.61H229.32C235.73 43.61 240.94 38.4 240.94 31.99V11.62C240.94 5.21 235.73 0 229.32 0ZM236.91 31.99C236.91 36.17 233.49 39.59 229.32 39.59H11.62C7.44 39.59 4.03 36.17 4.03 31.99V11.62C4.03 7.44 7.45 4.02 11.62 4.02H229.32C233.5 4.02 236.91 7.44 236.91 11.62V31.99Z" fill="#64666B"></path><path d="M22.69 18.1499C22.69 16.9499 21.69 16.2299 20 16.2299H16.12V20.0699H20C21.77 20.0699 22.69 19.3199 22.69 18.1499ZM26.67 17.4499C26.67 19.7999 25.1 21.0099 24.28 21.3999C25.26 21.6899 27.69 22.6899 27.69 25.8899C27.69 29.0899 24.99 30.8999 20.88 30.8999H12.22V12.7199H20.66C24.73 12.7199 26.66 14.9299 26.66 17.4499H26.67ZM23.71 25.3999C23.71 24.2699 22.87 23.3999 20.81 23.3999H16.12V27.3999H20.81C22.58 27.3999 23.71 26.7499 23.71 25.3999ZM31.37 12.7299H35.37V27.2799H44.41V30.9199H31.37V12.7199V12.7299ZM54.07 12.5999H58L65.79 30.9099H61.37L59.71 26.8299H52.02L50.36 30.9099H46.15L54.07 12.5999ZM58.39 23.5599L55.86 17.3999L53.33 23.5599H58.39ZM86.12 12.7299H90.12V20.6799L96.97 12.7299H102.33L94.27 21.5499L102.77 30.9099H97.41L90.12 22.7199V30.9099H86.12V12.7199V12.7299ZM177.35 12.7299H181.35V20.6799L188.2 12.7299H193.56L185.5 21.5499L194 30.9099H188.64L181.35 22.7199V30.9099H177.35V12.7199V12.7299ZM107.98 23.6099H103.28V20.0299H107.98V15.3599H111.67V20.0299H116.37V23.6099H111.67V28.2899H107.98V23.6099ZM138.61 21.8199C138.61 26.9399 134.66 30.9099 128.95 30.9099H122.12V12.7199H128.95C134.66 12.7199 138.61 16.6899 138.61 21.8099V21.8199ZM134.43 21.8199C134.43 18.5999 132.22 16.3399 128.95 16.3399H126.12V27.2999H128.95C132.22 27.2999 134.43 25.0399 134.43 21.8199ZM196.28 12.7299H209.31V16.2899H200.25V19.8999H208.27V23.4599H200.25V27.3599H209.45V30.9199H196.28V12.7199V12.7299ZM142.12 12.7299H155.16V16.2899H146.1V19.8999H154.12V23.4599H146.1V27.3599H155.3V30.9199H142.13V12.7199L142.12 12.7299ZM227.96 18.5599C227.96 22.9599 224.72 24.1499 223.43 24.4299L228.71 30.9099H223.67L218.89 24.6999H217.42V30.9099H213.42V12.7199H221.11C225.46 12.7199 227.97 15.1599 227.97 18.5499L227.96 18.5599ZM223.91 18.7699C223.91 17.1499 222.65 16.3399 220.7 16.3399H217.42V21.1699H220.78C222.73 21.1699 223.91 20.2999 223.91 18.7699ZM157.86 21.8199C157.86 17.0999 161.53 12.4199 167.7 12.4199C170.88 12.4199 173.25 13.6099 173.6 13.7699V17.6299C173.28 17.4299 171.22 16.1099 168.31 16.1099C164.34 16.1099 162.04 18.7399 162.04 21.8199C162.04 25.2099 164.56 27.5299 168.07 27.5299C170.51 27.5299 172.2 26.3499 172.61 26.0699L174.53 29.0299C173.76 29.6599 171.71 31.2199 167.49 31.2199C161.8 31.2199 157.85 26.8699 157.85 21.8199H157.86ZM66.63 21.8199C66.63 17.0999 70.3 12.4199 76.47 12.4199C79.65 12.4199 82.02 13.6099 82.37 13.7699V17.6299C82.05 17.4299 79.99 16.1099 77.09 16.1099C73.11 16.1099 70.81 18.7399 70.81 21.8199C70.81 25.2099 73.33 27.5399 76.85 27.5399C79.29 27.5399 80.97 26.3599 81.39 26.0799L83.31 29.0399C82.55 29.6699 80.49 31.2299 76.27 31.2299C70.57 31.2299 66.63 26.8799 66.63 21.8299V21.8199Z" fill="#64666B"></path><path d="M237.79 1.71982C237.79 0.819824 238.51 0.0698242 239.42 0.0698242C240.33 0.0698242 241.05 0.809824 241.05 1.69982C241.05 2.59982 240.33 3.34982 239.42 3.34982C238.51 3.34982 237.79 2.60982 237.79 1.71982ZM240.86 1.71982C240.86 0.909824 240.24 0.259824 239.42 0.259824C238.6 0.259824 237.98 0.919824 237.98 1.71982C237.98 2.52982 238.6 3.17982 239.42 3.17982C240.24 3.17982 240.86 2.51982 240.86 1.71982ZM238.74 0.839824H239.54C239.93 0.839824 240.22 1.01982 240.22 1.39982C240.22 1.66982 240.07 1.84982 239.85 1.91982L240.28 2.52982H239.78L239.41 1.99982H239.15V2.52982H238.74V0.829824V0.839824ZM239.51 1.65982C239.7 1.65982 239.8 1.56982 239.8 1.42982C239.8 1.27982 239.69 1.19982 239.51 1.19982H239.15V1.66982H239.51V1.65982Z" fill="#64666B"></path></g><defs><clipPath id="clip0_1_588"><rect width="241.04" height="43.61" fill="white"></rect></clipPath></defs></svg> 