<?xml version="1.0" encoding="UTF-8"?> <svg xmlns="http://www.w3.org/2000/svg" version="1.2" viewBox="0 0 561 129" width="561" height="129"><title>Bosch</title><style> .s0 { fill: none } .s1 { fill: #ed0007 } .s2 { fill: #000000 } </style><g><path fill-rule="evenodd" class="s0" d="m0-47h560.2v223.6h-560.2z"></path><path id="Shape" fill-rule="evenodd" class="s1" d="m254.5 83.2c0 13.8-12.6 22.8-25.4 22.8h-41.8v-82h38.4c14.7 0 25.3 7.5 25.3 22.6 0.1 7.4-4.4 14-11.3 16.7 0 0.1 14.8 3.5 14.8 19.9zm-47.1-27.2h14.8c2.1 0.1 4.2-0.6 5.7-2 1.6-1.4 2.5-3.3 2.5-5.4 0.1-2-0.6-4-2.1-5.5-1.5-1.5-3.6-2.2-5.7-2.1h-15.2c0 0 0 15 0 15zm26 23.9c0-4.7-3.4-7.9-10.6-7.9h-14.4v16h14.8c5.9 0 10.2-2.2 10.2-8.1z"></path><path id="Shape" fill-rule="evenodd" class="s1" d="m336.6 64c0 24.1-13.7 43-37.6 43-23.6 0-37.5-18.9-37.5-43 0-24 13.9-43 37.5-43 23.9 0 37.6 19 37.6 43zm-20-0.1c0-12.6-6-22.9-17.6-22.9-11.7 0-17.5 10.2-17.5 22.9 0 12.8 5.8 23.1 17.5 23.1 11.6 0 17.6-10.2 17.6-23.1z"></path><path id="Path" fill-rule="evenodd" class="s1" d="m380.8 55.8l-2.9-0.6c-6.9-1.5-12.5-3.3-12.5-8.3 0-5.4 5.3-7.6 9.9-7.6 6.4 0.1 12.5 2.9 16.8 7.6l12.7-12.6c-5.8-6.5-15.2-12.8-29.8-12.8-17.3 0-30.5 9.6-30.5 25.7 0 14.6 10.6 21.8 23.5 24.5l2.8 0.7c10.7 2.2 14.7 3.9 14.7 9 0 4.9-4.4 8.1-11.1 8.1-8 0-15.2-3.5-20.7-10.5l-13 12.8c7.2 8.6 16.3 15.3 34 15.3 15.3 0 31.7-8.7 31.7-26.6 0.3-18.7-13.9-22.3-25.7-24.7z"></path><path id="a" fill-rule="evenodd" class="s1" d="m452.3 87.7c-9.1 0-18.5-7.5-18.5-23.8 0-14.5 8.8-22.6 18-22.6 7.2 0 11.4 3.3 14.8 9.1l16.5-10.9c-8.3-12.5-18.1-17.8-31.6-17.8-24.7 0-38.1 19.2-38.1 42.3 0 24.3 14.8 43.4 37.8 43.4 16.3 0 24-5.7 32.4-17.8l-16.6-11.2c-3.4 5.4-7 9.3-14.7 9.3z"></path><path fill-rule="evenodd" class="s1" d="m538.1 23.6v30.1h-24.9v-30.1h-21.5v81.8h21.5v-32.2h24.9v32.2h21.5v-81.8z"></path><path id="b" class="s2" d="m64.1 3c-34.3 0-62.1 27.8-62.1 62 0 34.2 27.8 62 62.1 62 34.3 0 62.1-27.8 62.1-62 0-34.2-27.8-62-62.1-62zm0 118c-31 0-56.1-25.1-56.1-56 0-30.9 25.1-56 56.1-56 31 0 56.1 25.1 56.1 56 0 30.9-25.1 56-56.1 56z"></path><path class="s2" d="m89.3 26h-4.3v21.1h-42.7v-21.1h-4.4c-13 8.5-20.9 23-20.9 38.5 0 15.5 7.9 30 20.9 38.5h4.4v-21.1h42.7v21.1h4.3c13-8.5 20.9-23 20.9-38.5 0-15.5-7.9-30-20.9-38.5zm-52.2 69c-9-7.7-14.1-18.8-14.1-30.5 0-11.7 5.1-22.8 14.1-30.5zm48.1-19h-43.1v-23h43.1zm6 19v-13-35-13c8.9 7.8 14 18.9 14 30.5 0 11.6-5.1 22.7-14 30.5z"></path></g></svg> 