<?xml version="1.0" encoding="UTF-8"?> <svg xmlns="http://www.w3.org/2000/svg" width="288" height="98" viewBox="0 0 288 98" fill="none"><path d="M54.5 67.9H38.2C33 67.9 28.6 66.2 25.2 62.8C21.8 59.4 20 55.2 20 50C20 44.9 21.7 40.7 25.1 37.6C28.5 34.5 32.8 32.9 38.1 32.9H54.4V39H38.2C34.8 39 31.9 40.1 29.7 42.2C27.5 44.4 26.4 47.1 26.4 50.5C26.4 53.8 27.5 56.6 29.7 58.6C31.9 60.7 34.8 61.7 38.2 61.7H54.5V67.9Z" fill="#231F20"></path><path d="M106.9 67.9H98.8L92.7 58.5H75.7L79.5 52.7H89L82.8 43L66.6 67.8H58.5L78.1 37.5C78.6 36.7 79.3 36 80.2 35.3C81.3 34.5 82.2 34.2 83 34.2C83.9 34.2 84.9 34.6 85.8 35.3C86.6 35.9 87.3 36.7 87.9 37.5L106.9 67.9Z" fill="#231F20"></path><path d="M146.6 46.5C146.6 50.2 145.2 53.1 142.3 55.4C139.6 57.5 136.3 58.5 132.2 58.5H120.3V52.7H133.2C135.3 52.7 137 52.1 138.4 51C139.8 49.9 140.5 48.3 140.5 46.4C140.5 44.5 139.8 43 138.4 41.9C137 40.8 135.3 40.2 133.2 40.2H116.6V67.9H110.3V34.4H132.1C136.1 34.4 139.5 35.5 142.2 37.6C145.2 39.8 146.6 42.8 146.6 46.5Z" fill="#231F20"></path><path d="M159.4 67.9H153.1V34.6H159.4V67.9Z" fill="#231F20"></path><path d="M195.8 40.2H183.6V67.9H177.4V40.2H165.2V34.4H195.8V40.2Z" fill="#231F20"></path><path d="M236.8 67.9H228.7L222.6 58.5H205.5L209.3 52.7H218.8L212.5 43L196.3 67.8H188.2L208 37.6C208.5 36.8 209.2 36.1 210.1 35.4C211.2 34.6 212.1 34.3 212.9 34.3C213.8 34.3 214.8 34.7 215.7 35.4C216.5 36 217.2 36.8 217.8 37.6L236.8 67.9Z" fill="#231F20"></path><path d="M266.4 67.9H239.4V34.4H245.7V62.1H266.5V67.9H266.4Z" fill="#231F20"></path><path d="M158.1 16.4C158.1 16.4 157.5 19.2 160.8 22.3C160.8 22.3 163.6 25.8 160.3 29.6C160.3 29.6 159.3 31.2 157.2 31.9C157.2 31.9 159.9 29.3 158.6 25.8C158.6 25.8 158.3 24.9 157.4 23.4C157.3 23.5 154.4 19.9 158.1 16.4Z" fill="#2286C8"></path><path d="M157.3 29.3C157.3 29.3 158.1 26.7 156 24.4C156 24.4 152.3 21 155.1 18C155.1 18 160.3 13.4 155.1 8.9C155.1 8.9 155.7 12 153.3 14C153.3 14 149.3 18 152.3 22.1C152.3 22.1 153.3 23.9 155.2 25.3C155 25.4 156.7 26.5 157.3 29.3Z" fill="#00AEEF"></path><path d="M151.2 22.9C151.2 22.9 151.6 25.1 153.6 26.4C153.6 26.4 158.3 29.6 156.4 32.2C156.4 32.2 155.4 33 154.5 33.7C154.5 33.7 154.5 32 153 31.1C153 31.1 149.2 28.8 150.1 25.6C150.2 25.6 150.5 23.9 151.2 22.9Z" fill="#2286C8"></path><path d="M22.9 74.9H28.7V75.8H24V79.3H28.6V80.2H24V83.8H28.7V84.7H22.9V74.9Z" fill="#010101"></path><path d="M35.8 79.6L32.4 74.8H33.6L36.4 78.7L39.2 74.8H40.4L37 79.6L40.6 84.6H39.3L36.3 80.4L33.3 84.6H32.1L35.8 79.6Z" fill="#010101"></path><path d="M45.8 75.7H43.4V74.8H49.3V75.7H46.9V84.6H45.8V75.7Z" fill="#010101"></path><path d="M53 74.9H55.7C57.1 74.9 57.8 75.1 58.3 75.3C59.5 75.8 60.2 76.9 60.2 78.1C60.2 79.5 59.1 80.9 57.1 81.1L60.1 84.7H58.8L55 80.2C56.3 80.2 56.8 80.2 57.3 80.1C58.5 79.8 59 78.9 59 78C59 77.2 58.5 76.4 57.8 76.1C57.2 75.8 56.6 75.7 55.7 75.7H54V84.6H53V74.9Z" fill="#010101"></path><path d="M67.8 74.9H69L73.5 84.7H72.3L70.8 81.4H66L64.5 84.7H63.4L67.8 74.9ZM66.4 80.4H70.5L68.5 75.9L66.4 80.4Z" fill="#010101"></path><path d="M81.8 74.7C84.8 74.7 87.4 76.9 87.4 79.7C87.4 82.6 84.8 84.7 81.8 84.7C78.8 84.7 76.2 82.4 76.2 79.7C76.2 76.7 78.9 74.7 81.8 74.7ZM81.8 83.9C84.2 83.9 86.3 82.1 86.3 79.7C86.3 77.4 84.3 75.5 81.8 75.5C79.4 75.5 77.3 77.3 77.3 79.7C77.2 82 79.3 83.9 81.8 83.9Z" fill="#010101"></path><path d="M91.5 74.9H94.2C95.6 74.9 96.3 75.1 96.8 75.3C98 75.8 98.7 76.9 98.7 78.1C98.7 79.5 97.6 80.9 95.6 81.1L98.6 84.7H97.3L93.7 80.3C95 80.3 95.5 80.3 96 80.2C97.2 79.9 97.7 79 97.7 78.1C97.7 77.3 97.2 76.5 96.5 76.2C95.9 75.9 95.3 75.8 94.4 75.8H92.6V84.7H91.5V74.9Z" fill="#010101"></path><path d="M102.8 74.9H105.9C107.2 74.9 108.5 75.2 109.3 75.7C111.2 76.8 111.7 78.6 111.7 79.8C111.7 80.7 111.3 82.7 109.3 83.8C108.4 84.3 107.2 84.6 105.9 84.6H102.8V74.9ZM103.8 83.7H105.3C106.3 83.7 107.7 83.7 108.9 82.9C109.5 82.4 110.6 81.4 110.6 79.7C110.6 78.4 109.9 77.2 108.8 76.5C107.9 75.9 106.9 75.7 105.3 75.7H103.8V83.7Z" fill="#010101"></path><path d="M116 74.9H117.1V84.7H116V74.9Z" fill="#010101"></path><path d="M121.8 74.9H123.2L129.1 83V74.9H130.2V84.7H129.1L122.8 76.1V84.7H121.7V74.9H121.8Z" fill="#010101"></path><path d="M138.5 74.9H139.7L144.2 84.7H143L141.5 81.4H136.6L135.1 84.7H134L138.5 74.9ZM137 80.4H141.1L139.1 75.9L137 80.4Z" fill="#010101"></path><path d="M147.9 74.9H150.6C152 74.9 152.7 75.1 153.2 75.3C154.4 75.8 155.1 76.9 155.1 78.1C155.1 79.5 154 80.9 152 81.1L155 84.7H153.7L150.1 80.3C151.4 80.3 151.9 80.3 152.4 80.2C153.6 79.9 154.1 79 154.1 78.1C154.1 77.3 153.6 76.5 152.9 76.2C152.3 75.9 151.7 75.8 150.8 75.8H149V84.7H147.9V74.9Z" fill="#010101"></path><path d="M161.6 81.4L157.9 74.9H159.1L162.1 80.4L165.2 74.9H166.4L162.7 81.4V84.7H161.6V81.4Z" fill="#010101"></path><path d="M186.5 82.1C185.4 84 183.3 84.8 181.6 84.8C178.6 84.8 176.1 82.7 176.1 79.8C176.1 76.9 178.6 74.8 181.6 74.8C184.3 74.8 186 76.6 186.4 77.5H185.2C184 75.9 182.2 75.7 181.5 75.7C179 75.7 177.1 77.7 177.1 79.9C177.1 82.2 179.3 84 181.5 84C182 84 183.8 83.9 185.2 82.2H186.5V82.1Z" fill="#010101"></path><path d="M195.8 74.7C198.8 74.7 201.4 76.9 201.4 79.7C201.4 82.6 198.8 84.7 195.8 84.7C192.8 84.7 190.2 82.4 190.2 79.7C190.2 76.7 193 74.7 195.8 74.7ZM195.8 83.9C198.2 83.9 200.3 82.1 200.3 79.7C200.3 77.4 198.3 75.5 195.8 75.5C193.4 75.5 191.3 77.3 191.3 79.7C191.3 82 193.4 83.9 195.8 83.9Z" fill="#010101"></path><path d="M210.8 74.7C213.8 74.7 216.4 76.9 216.4 79.7C216.4 82.6 213.8 84.7 210.8 84.7C207.8 84.7 205.2 82.4 205.2 79.7C205.2 76.7 208 74.7 210.8 74.7ZM210.8 83.9C213.2 83.9 215.3 82.1 215.3 79.7C215.3 77.4 213.3 75.5 210.8 75.5C208.4 75.5 206.3 77.3 206.3 79.7C206.2 82 208.3 83.9 210.8 83.9Z" fill="#010101"></path><path d="M220.7 74.9H221.8V80.5L226.6 74.9H228L223.8 79.7L228 84.7H226.7L223.2 80.5L221.8 82.1V84.8H220.7V74.9Z" fill="#010101"></path><path d="M231.6 74.9H232.7V84.7H231.6V74.9Z" fill="#010101"></path><path d="M237.4 74.9H238.8L244.7 83V74.9H245.8V84.7H244.7L238.4 76.1V84.7H237.3V74.9H237.4Z" fill="#010101"></path><path d="M261.2 80.1C261 83 258.2 84.8 255.6 84.8C252.5 84.8 249.9 82.4 249.9 79.8C249.9 77.3 252.2 74.8 255.5 74.8C258.3 74.8 260.1 76.6 260.5 77.6H259.3C258.7 76.6 257.3 75.7 255.6 75.7C252.9 75.7 251 77.7 251 79.9C251 82.1 252.9 84.1 255.6 84.1C257.8 84.1 259.5 82.6 259.9 81.2H254V80.3H261.2V80.1Z" fill="#010101"></path><path d="M262.9 74.9H262.4V74.7H263.7V74.9H263.2V76.8H262.9V74.9ZM264 74.7H264.4L265.2 76.5L266 74.7H266.4V76.9H266.1V75L265.3 76.8H265L264.2 75V76.8H264V74.7Z" fill="#010101"></path></svg> 