<?xml version="1.0" encoding="UTF-8"?> <svg xmlns="http://www.w3.org/2000/svg" width="160" height="100" viewBox="0 0 160 100" fill="none"><path d="M80 18.0206C35.7628 18.0206 0 32.3578 0 49.9993C0 67.6408 35.7628 81.9778 80 81.9778C124.237 81.9778 160 67.6408 160 49.9993C160 32.3578 124.237 18.0206 80 18.0206Z" fill="#273270"></path><path d="M126.316 59.0596H122.744C122.744 59.0596 125.729 50.5852 126.636 47.6008C126.795 47.0676 126.902 46.4812 126.902 46.2148C126.902 46.0017 126.795 45.7883 126.529 45.7883C126.156 45.7883 125.249 46.2148 123.598 48.5598H122.638C124.611 45.3087 127.062 43.1234 128.767 43.1234C129.887 43.1234 130.366 43.7632 130.366 44.7757C130.366 45.4685 130.047 46.8009 129.301 49.4658C132.498 43.6566 134.524 42.8571 135.803 42.9105C137.136 42.9105 137.882 43.8166 137.882 44.9357C137.882 46.1082 136.976 47.4941 135.59 47.4941C134.684 47.4941 134.044 46.8009 134.044 45.6286C134.044 45.5221 134.044 45.3619 134.044 45.2556C133.138 45.7352 130.793 47.8137 127.968 54.689L126.316 59.0596ZM84.4772 59.0596H80.9061C80.9061 59.0596 83.8905 50.5852 84.7967 47.6008C84.9567 47.0676 85.0633 46.4812 85.0633 46.2148C85.0633 46.0017 84.9567 45.7883 84.69 45.7883C84.3172 45.7883 83.4111 46.2148 81.7589 48.5598H80.7994C82.7711 45.3087 85.2228 43.1234 86.9289 43.1234C88.0478 43.1234 88.5278 43.7632 88.5278 44.7757C88.5278 45.4685 88.2078 46.8009 87.4617 49.4658C90.66 43.6566 92.685 42.8571 93.9639 42.9105C95.2961 42.9105 96.0428 43.8166 96.0428 44.9357C96.0428 46.1082 95.1367 47.4941 93.7511 47.4941C92.8444 47.4941 92.2055 46.8009 92.2055 45.6286C92.2055 45.5221 92.2055 45.3619 92.2055 45.2556C91.2994 45.7352 88.9539 47.8137 86.1289 54.689L84.4772 59.0596ZM104.731 38.5398C104.731 40.0854 103.451 41.5781 101.958 41.5781C101.106 41.5781 100.467 41.0451 100.467 39.9257C100.467 38.3801 101.746 36.888 103.238 36.888C104.091 36.888 104.731 37.4205 104.731 38.5398ZM99.5605 43.1768H103.132L98.8672 55.169C98.8139 55.3285 98.6005 55.9682 98.6005 56.5015C98.6005 56.8743 98.7611 57.0342 99.0272 57.0342C99.9867 57.0342 101.639 55.4886 102.651 54.103H103.611C102.012 56.768 99.1872 59.5392 96.6289 59.5392C95.4033 59.5392 94.6033 58.7931 94.6033 57.6208C94.6033 56.9275 94.8167 55.8081 95.4561 54.103L99.5605 43.1768ZM44.9299 37.9005C44.3969 37.7404 43.6511 37.6338 42.9047 37.6338C35.7628 37.6338 29.5803 44.5092 29.5803 51.4912C29.5803 56.608 32.7248 57.9402 35.2832 57.9402C38.2676 57.9402 40.3997 56.768 42.3717 55.009H43.4377C41.9453 57.0874 38.7476 59.6991 34.1104 59.6991C27.7682 59.6991 25.3166 55.8619 25.3166 51.4381C25.3166 43.23 34.0573 36.3013 43.2246 36.3013C46.7956 36.3013 48.8207 37.5807 48.8207 39.3927C48.8207 40.5655 47.9679 41.5781 46.5289 41.5781C45.3566 41.5781 44.4503 40.8849 44.4503 39.6058C44.4503 39.1796 44.6636 38.4333 44.9299 37.9005ZM68.8605 59.0596H65.2894C65.2894 59.0596 68.2744 50.5852 69.1805 47.6008C69.3406 47.0676 69.4472 46.4812 69.4472 46.2148C69.4472 46.0017 69.3405 45.7883 69.0739 45.7883C68.7011 45.7883 67.795 46.2148 66.1428 48.5598H65.1833C67.155 45.3087 69.6067 43.1234 71.3122 43.1234C72.4317 43.1234 72.9117 43.7632 72.9117 44.7757C72.9117 45.4685 72.5917 46.8009 71.8456 49.4658C75.0433 43.6566 77.0689 42.8571 78.3478 42.9105C79.68 42.9105 80.4267 43.8166 80.4267 44.9357C80.4267 46.1082 79.5206 47.4941 78.1344 47.4941C77.2283 47.4941 76.5889 46.8009 76.5889 45.6286C76.5889 45.5221 76.5889 45.3619 76.5889 45.2556C75.6828 45.7352 73.3378 47.8137 70.5128 54.689L68.8605 59.0596ZM115.709 43.9231C116.935 43.9231 117.416 44.8291 117.416 45.8951C117.416 47.5472 115.336 51.3849 109.793 51.4912C110.327 48.2402 112.884 43.9231 115.709 43.9231ZM112.299 57.674C110.273 57.674 109.367 56.1813 109.367 54.5295C109.367 53.9428 109.421 53.09 109.527 52.6104C117.308 52.3441 120.773 49.5726 120.773 46.5878C120.773 44.4027 118.961 42.9103 116.136 42.9103C109.74 42.9103 105.37 48.9862 105.37 54.0498C105.37 57.674 107.555 59.5392 111.179 59.5392C114.643 59.5392 118.054 56.768 119.547 54.4758H118.641C117.308 55.8081 115.07 57.674 112.299 57.674ZM57.9344 47.5472C57.9344 47.5472 56.7622 50.3719 55.59 52.6104C54.6302 54.4227 52.4985 57.1406 50.9527 57.1406C49.8336 57.1406 49.2472 56.3415 49.2472 55.009C49.2472 50.4787 54.0972 44.1896 56.8156 44.1896C57.7217 44.1896 58.2544 44.9888 58.2544 46.0017C58.2544 46.4812 58.1478 46.9611 57.9344 47.5472ZM62.1989 54.103C61.5589 55.1154 60.12 56.8743 59.1072 56.8743C58.8411 56.8743 58.6806 56.7148 58.6806 56.3947C58.6806 55.9682 58.8411 55.4355 58.8411 55.4355L63.1578 43.1768H59.5339L59.0539 44.5092C58.4144 43.4967 57.5617 43.1234 56.4956 43.1234C52.2852 43.1234 45.4095 49.1462 45.4095 55.3285C45.4095 57.9934 47.0087 59.5392 49.1938 59.5392C51.3791 59.5392 53.3511 57.7271 54.7902 55.5418H54.8967C54.8436 55.9151 54.737 56.5015 54.737 57.0342C54.737 58.3669 55.4297 59.3791 56.7622 59.3791C59.7467 59.3791 62.3583 55.4355 63.2111 54.103H62.1989ZM80 76.4878C37.7882 76.4878 3.57096 64.5494 3.57096 49.9991C3.57096 35.4487 37.7882 23.51 80 23.51C122.212 23.51 156.429 35.4487 156.429 49.9991C156.429 64.5494 122.212 76.4878 80 76.4878ZM80 21.6445C37.2018 21.6445 2.50499 34.3827 2.50499 49.9991C2.50499 65.615 37.2018 78.3534 80 78.3534C122.798 78.3534 157.495 65.615 157.495 49.9991C157.495 34.3827 122.798 21.6445 80 21.6445Z" fill="white"></path></svg> 