<?xml version="1.0" encoding="UTF-8"?> <svg xmlns="http://www.w3.org/2000/svg" width="150" height="37" viewBox="0 0 150 37" fill="none"><g clip-path="url(#clip0_1_409)"><path d="M122.947 14.7825H103.468C101.666 14.8572 98.477 15.6757 97.7511 18.2949L95.2107 30.6754C94.6358 33.348 96.2301 36.3764 99.6554 36.4048H118.71C121.161 36.3728 123.971 35.718 124.639 32.5259L127.392 19.5902C127.906 16.9853 125.846 14.8572 122.947 14.7825ZM119.771 22.7289L118.498 28.8249C118.254 29.7466 117.316 30.3978 116.17 30.4868H104.1C102.975 30.3978 102.318 29.4157 102.408 28.4548L103.888 21.8037C104.1 21.2379 104.475 20.8286 105.792 20.8784H118.286C119.473 20.8322 120.129 21.6471 119.771 22.7289Z" fill="#C4C4C4"></path><path d="M60.696 14.7825H41.641L40.3688 20.8784H57.3075C59.016 20.8286 58.0781 22.5439 56.8834 22.5403H41.0049C39.1414 22.5439 35.9567 23.3624 35.288 26.0527L34.4398 30.6718C33.7956 33.3408 35.3899 36.3692 38.8845 36.4013H56.8834C58.7306 36.3692 61.9193 35.5543 62.6003 32.8889L65.1407 20.5083C65.7605 17.8821 64.1702 14.8572 60.696 14.7825ZM56.2513 30.4868H42.2771C41.2047 30.3978 41.0171 28.5153 42.7012 28.4548H56.6754L56.2513 30.4868Z" fill="#C4C4C4"></path><path d="M36.9857 20.8786L38.2579 14.7826H34.4453L37.4057 0H30.6327L27.6682 14.7826H8.40111C6.52537 14.8574 3.33662 15.6759 2.68419 18.295L0.14379 30.672C-0.504562 33.3446 1.08574 36.373 4.58847 36.4015H26.608C28.1738 36.3694 30.1393 35.1453 30.4206 33.2592L33.1731 20.8786H36.9857ZM24.2796 30.487H9.0413C7.84246 30.398 7.18596 29.4158 7.34906 28.455L8.82926 21.8039C8.96791 21.238 9.33897 20.8324 10.5215 20.8786H26.4L24.2796 30.487Z" fill="#C4C4C4"></path><path d="M74.4619 14.7825C72.7003 14.8572 69.5156 15.6721 68.957 18.2949L66.2046 30.6754C65.6704 33.3444 67.2647 36.3728 70.6492 36.4048H90.7644L92.0367 30.4904H75.31C74.0133 30.4014 73.3568 29.4192 73.6178 28.4584L74.89 21.8073C75.1388 21.2414 75.518 20.8322 76.7943 20.882H94.1571L95.4293 14.786H74.4619V14.7825Z" fill="#C4C4C4"></path><path d="M143.058 14.7825C142.059 14.8572 141.125 14.8572 140.305 15.3376L138.613 16.6294L137.765 14.7825H131.624L126.967 36.4013H133.952L136.705 23.6506C137.092 21.5653 139.437 20.8251 141.15 20.8784H147.927L149.199 14.7825H143.058Z" fill="#C4C4C4"></path></g><defs><clipPath id="clip0_1_409"><rect width="150" height="37" fill="white"></rect></clipPath></defs></svg> 