<?xml version="1.0" encoding="UTF-8"?> <svg xmlns="http://www.w3.org/2000/svg" width="273" height="17" viewBox="0 0 273 17" fill="none"><g clip-path="url(#clip0_1_417)"><path d="M0 16.73V0.27002H11.58V3.89002H4.29V7.27002H11V10.89H4.29V16.73H0Z" fill="black"></path><path d="M24 16.73H19.73V0.27002H24V16.73Z" fill="black"></path><path d="M32.26 11.53C33.9023 12.6693 35.8332 13.321 37.83 13.41C39.09 13.41 40.27 13.11 40.27 12.01C40.27 11.24 39.71 10.94 38.88 10.7L36.39 9.99999C33.62 9.16999 32.18 7.84999 32.18 5.24999C32.18 2.10999 34.94 0.0499855 38.48 0.0499855C40.2539 0.0178004 42.0065 0.441303 43.57 1.27999V5.27999C42.1028 4.25097 40.3618 3.6834 38.57 3.64999C37.29 3.64999 36.38 4.01999 36.38 4.92999C36.38 5.59999 36.83 5.86999 37.69 6.13999L40.18 6.88999C43.18 7.82999 44.55 9.24999 44.55 11.72C44.55 15.26 41.36 17.08 37.82 17.08C35.8769 17.0852 33.9629 16.6075 32.25 15.69L32.26 11.53Z" fill="black"></path><path d="M67.54 0.27002V16.73H63.25V10.14H57V16.73H52.66V0.27002H57V6.52002H63.3V0.27002H67.54Z" fill="black"></path><path d="M88.43 0.27002V3.89002H81V6.52002H87.84V10.14H81V13.14H88.48V16.76H76.66V0.27002H88.43Z" fill="black"></path><path d="M97.25 0.27002H104.25C107.92 0.27002 110.71 2.27002 110.71 5.95002C110.757 7.08902 110.433 8.21247 109.785 9.15059C109.137 10.0887 108.202 10.7905 107.12 11.15L111.46 16.73H106.46L102.57 11.64H101.5V16.73H97.25V0.27002ZM101.54 8.00002H104C105.55 8.00002 106.55 7.19002 106.55 5.93002C106.55 4.67002 105.55 3.87002 104 3.87002H101.56L101.54 8.00002Z" fill="black"></path><path d="M137.12 15.36C135.853 16.4489 134.23 17.0328 132.56 17C129.08 17 126.18 14.72 126.18 11C126.203 9.92252 126.483 8.86606 126.996 7.91825C127.509 6.97044 128.241 6.15859 129.13 5.55002L127.49 3.55002V0.27002H138.49V3.89002H132.62L137.07 9.57002L138.07 8.02002H142.52L139.35 12.58L142.62 16.73H138.15L137.12 15.36ZM134.87 12.58L131.41 8.31002C130.979 8.60086 130.625 8.99234 130.38 9.4506C130.134 9.90885 130.004 10.4201 130 10.94C129.996 11.2764 130.06 11.6101 130.188 11.921C130.316 12.232 130.506 12.5137 130.746 12.7492C130.987 12.9847 131.272 13.1691 131.585 13.2913C131.899 13.4135 132.234 13.4709 132.57 13.46C132.993 13.4736 133.414 13.4028 133.809 13.2517C134.204 13.1006 134.564 12.8722 134.87 12.58Z" fill="black"></path><path d="M162.59 16.73H158.3V0.27002H165.3C168.97 0.27002 171.76 2.27002 171.76 5.95002C171.76 9.63002 168.97 11.64 165.3 11.64H162.59V16.73ZM162.59 8.02002H165C166.56 8.02002 167.55 7.21002 167.55 5.95002C167.55 4.69002 166.55 3.89002 165 3.89002H162.56L162.59 8.02002Z" fill="black"></path><path d="M188 13.7H181.41L180.23 16.7H176L182.7 0.27002H186.78L193.48 16.73H189.16L188 13.7ZM182.83 10.08H186.58L184.71 5.26002L182.83 10.08Z" fill="black"></path><path d="M202.54 16.73V10.35L196.32 0.27002H201.15L204.82 6.62002L208.49 0.27002H213.05L206.83 10.35V16.73H202.54Z" fill="black"></path><path d="M223.4 7.27002L228.66 0.27002H233.66L227.58 8.15002L233.9 16.73H228.81L223.4 9.36002V16.73H219.11V0.27002H223.4V7.27002Z" fill="black"></path><path d="M252.07 0.27002V3.89002H244.58V6.52002H251.42V10.14H244.58V13.14H252.07V16.76H240.29V0.27002H252.07Z" fill="black"></path><path d="M260.89 0.27002H265.18V13.11H272.58V16.73H260.89V0.27002Z" fill="black"></path></g><defs><clipPath id="clip0_1_417"><rect width="273" height="17" fill="white"></rect></clipPath></defs></svg> 