<?xml version="1.0" encoding="UTF-8"?> <svg xmlns="http://www.w3.org/2000/svg" width="185" height="22" viewBox="0 0 185 22" fill="none"><g clip-path="url(#clip0_1_631)"><path fill-rule="evenodd" clip-rule="evenodd" d="M132.895 11.3763V21.9644H136.454V0.821777H132.895V11.3763Z" fill="#2D2E2C"></path><path fill-rule="evenodd" clip-rule="evenodd" d="M61.7813 13.0222H66.9563V16.9803C65.7163 17.9471 63.9789 18.5801 62.0698 18.5801C57.9324 18.5801 55.1833 15.3791 55.1833 11.0307V10.9679C55.1833 6.92135 58.0179 3.50982 61.7499 3.50982C64.3261 3.50982 65.8586 4.38466 67.4204 5.77395L69.6781 2.9626C67.598 1.123 65.4225 0.0961914 61.8962 0.0961914C55.7896 0.0961914 51.4492 5.11032 51.4492 11.0307V11.0906C51.4492 17.2515 55.618 21.9644 61.9516 21.9644C65.54 21.9644 68.404 20.4532 70.4026 18.67V9.78776H61.7813V13.0222Z" fill="#2D2E2C"></path><mask id="mask0_1_631" style="mask-type:luminance" maskUnits="userSpaceOnUse" x="0" y="0" width="182" height="22"><path d="M0 0.821777H181.16V21.9644H0V0.821777Z" fill="white"></path></mask><g mask="url(#mask0_1_631)"><path fill-rule="evenodd" clip-rule="evenodd" d="M169.699 18.6414V12.9622H181.156V9.6392H169.699V4.14269H181.156V0.821777H166.14V21.9644H181.16V18.6414H169.699Z" fill="#2D2E2C"></path></g><mask id="mask1_1_631" style="mask-type:luminance" maskUnits="userSpaceOnUse" x="0" y="0" width="182" height="22"><path d="M0 0.821777H181.16V21.9644H0V0.821777Z" fill="white"></path></mask><g mask="url(#mask1_1_631)"><path fill-rule="evenodd" clip-rule="evenodd" d="M3.51836 21.9644V13.3561H15.031V9.97659H3.51836V4.20403H15.037V0.821777H-0.040062V21.9644H3.51836Z" fill="#2D2E2C"></path></g><path fill-rule="evenodd" clip-rule="evenodd" d="M23.51 11.3011V4.20403H28.6911C31.324 4.20403 32.8859 5.44136 32.8859 7.70828V7.76823C32.8859 9.91246 31.2659 11.3011 28.7205 11.3011H23.51ZM31.6712 13.9604C34.5058 13.1149 36.5037 11.0306 36.5037 7.55701V7.49567C36.5037 5.65118 35.8954 4.08274 34.825 2.93325C33.5236 1.60739 31.525 0.821777 28.9816 0.821777H19.9529V21.9644H23.51V14.5948H27.9672L32.944 21.9644H37.1408L31.6712 13.9604Z" fill="#2D2E2C"></path><path fill-rule="evenodd" clip-rule="evenodd" d="M42.3659 11.0236V21.9644H45.925V0.821777H42.3659V11.0236Z" fill="#2D2E2C"></path><path fill-rule="evenodd" clip-rule="evenodd" d="M76.7756 11.3763V21.9644H80.336V0.821777H76.7756V11.3763Z" fill="#2D2E2C"></path><path fill-rule="evenodd" clip-rule="evenodd" d="M102.129 11.4523C102.129 15.5888 99.3494 18.5772 95.1005 18.5772H91.1067V4.20403H95.1005C99.3494 4.20403 102.129 7.25517 102.129 11.391V11.4523ZM95.1005 0.821777H87.5443V21.9644H95.1005C101.464 21.9644 105.865 17.342 105.865 11.391V11.331C105.865 5.38141 101.464 0.821777 95.1005 0.821777Z" fill="#2D2E2C"></path><path fill-rule="evenodd" clip-rule="evenodd" d="M147.236 11.3011V4.20403H152.416C155.048 4.20403 156.611 5.44136 156.611 7.70828V7.76823C156.611 9.91246 154.989 11.3011 152.445 11.3011H147.236ZM155.396 13.9604C158.23 13.1149 160.227 11.0306 160.227 7.55701V7.49567C160.227 5.65118 159.618 4.08274 158.549 2.93325C157.246 1.60739 155.249 0.821777 152.705 0.821777H143.678V21.9644H147.236V14.5948H151.691L156.667 21.9644H160.864L155.396 13.9604Z" fill="#2D2E2C"></path><path fill-rule="evenodd" clip-rule="evenodd" d="M107.298 21.9644H128.741L118.02 0L107.298 21.9644Z" fill="#2D2E2C"></path><path fill-rule="evenodd" clip-rule="evenodd" d="M112.696 18.5719L117.998 7.44434L123.342 18.5719H112.696Z" fill="#DC3E54"></path><path fill-rule="evenodd" clip-rule="evenodd" d="M183.534 20.3129C183.735 20.3129 183.855 20.2111 183.855 20.0487V20.041C183.855 19.8688 183.735 19.7768 183.534 19.7768H183.131V20.3129H183.534ZM182.822 19.4854H183.546C183.761 19.4854 183.928 19.5517 184.038 19.6688C184.125 19.7531 184.173 19.8744 184.173 20.0229V20.0312C184.173 20.3045 184.018 20.4746 183.795 20.5415L184.231 21.1814H183.864L183.469 20.5945H183.131V21.1814H182.822V19.4854ZM184.837 20.3798V20.3714C184.837 19.5712 184.241 18.9215 183.451 18.9215C182.659 18.9215 182.059 19.5788 182.059 20.3798V20.3896C182.059 21.1912 182.655 21.8388 183.443 21.8388C184.237 21.8388 184.837 21.1814 184.837 20.3798ZM181.896 20.3896V20.3798C181.896 19.4987 182.582 18.7598 183.451 18.7598C184.323 18.7598 185 19.4889 185 20.3714V20.3798C185 21.2616 184.314 21.9998 183.443 21.9998C182.573 21.9998 181.896 21.2714 181.896 20.3896Z" fill="#2D2E2C"></path></g><defs><clipPath id="clip0_1_631"><rect width="185" height="22" fill="white"></rect></clipPath></defs></svg> 