<?xml version="1.0" encoding="UTF-8"?> <svg xmlns="http://www.w3.org/2000/svg" width="679" height="72" viewBox="0 0 679 72" fill="none"><g clip-path="url(#clip0_1_436)"><mask id="mask0_1_436" style="mask-type:luminance" maskUnits="userSpaceOnUse" x="0" y="0" width="679" height="72"><path d="M679 0H0V72H679V0Z" fill="white"></path></mask><g mask="url(#mask0_1_436)"><path d="M87.4 59.7C87.4 62.9 63.4 70.9 47 70.9C22.9 70.9 0 59.7 0 36C0 13.5 20.3 0.199992 49.7 -8.41159e-06C61.2 -0.100008 69.6 4.39999 80.1 6.49999C80.4 6.59999 87.3 1.49999 87.3 4.89999V24.8C85.9 25.9 83.1 29 79.3 19.7C75.1 9.69999 57.8 3.59999 45.1 4.89999C23.7 6.99999 17.3 17.4 17.3 35.7C17.3 54.2 30.4 67.1 52.3 64.8C53.7 64.7 70.6 65.1 70.6 53.3C70.6 47.9 70 41.6 63.2 41.6C57.6 41.6 55.5 41.1 55.5 39.7C55.5 38.5 56.2 38.1 59 38.1H93.3C95.9 38.1 96.3 37.8 96.3 39.4C96.3 40.8 94.6 41.6 92.2 41.6C88.1 41.6 87.4 43.9 87.2 49.1L87.4 59.7Z" fill="black"></path></g><mask id="mask1_1_436" style="mask-type:luminance" maskUnits="userSpaceOnUse" x="0" y="0" width="679" height="72"><path d="M679 0H0V72H679V0Z" fill="white"></path></mask><g mask="url(#mask1_1_436)"><path d="M135.7 22C136 21.5 137.5 19.4 138.3 19.4C139.2 19.4 139.7 20.1 140.6 21.4L149.3 37.1C150.3 38.7 151.2 40.5 151.2 41C151.2 41.4 149.7 41.6 145.6 41.6H130C126.8 41.6 124.6 41.3 124.6 40.4C124.6 40.1 125.1 39 126 37.6L135.7 22ZM104.2 61.4C103.2 63 102.2 64.1 100 65.2C98.2 66.2 95 66.8 95 68.4C95 70 96.5 70 98.3 70C102.7 70 107 69.2 111.4 69.2C115.8 69.2 120.1 70 124.5 70C126.6 70 128 70 128 68.4C128 66.8 123.3 66 119.7 65.2C117 64.6 114.8 62.7 114.8 61.3C114.8 57.1 118.4 47.1 124.9 47.1H145.3C151.6 47.1 154 47.5 155.7 48.8C157.6 50.3 161.5 58.8 161.5 61.2C161.5 63.8 158.8 66 155.5 66.5C153.6 66.6 152.2 67.5 152.2 68.7C152.2 69.3 153 70 154.8 70C161 70 166 69.2 171.6 69.2C177.2 69.2 183.4 70 189.5 70C191.6 70 192.8 70 192.8 68.4C192.8 66.8 190.9 66.5 187.4 65.7C182.5 64.6 180.7 59.9 178.4 56.1L145.6 2.6C144.8 1.4 144.1 0.5 143.6 0.5C142.4 0.5 141.8 1.4 140.1 3.9L104.2 61.4Z" fill="black"></path></g><mask id="mask2_1_436" style="mask-type:luminance" maskUnits="userSpaceOnUse" x="0" y="0" width="679" height="72"><path d="M679 0H0V72H679V0Z" fill="white"></path></mask><g mask="url(#mask2_1_436)"><path d="M408.8 22C409.1 21.5 410.7 19.4 411.4 19.4C412.3 19.4 412.8 20.1 413.7 21.4L422.4 37.1C423.4 38.7 424.3 40.5 424.3 41C424.3 41.4 422.8 41.6 418.7 41.6H403C399.8 41.6 397.6 41.3 397.6 40.4C397.6 40.1 398.1 39 399 37.6L408.8 22ZM377.2 61.4C376.2 63 375.1 64.1 373 65.2C371.2 66.2 368 66.8 368 68.4C368 70 369.5 70 371.3 70C375.7 70 380 69.2 384.4 69.2C388.8 69.2 393.1 70 397.5 70C399.5 70 401 70 401 68.4C401 66.8 396.3 66 392.7 65.2C390 64.6 387.8 62.7 387.8 61.3C387.8 57.1 391.4 47.1 397.9 47.1H418.3C424.6 47.1 427 47.5 428.7 48.8C430.6 50.3 434.5 58.8 434.5 61.2C434.5 63.8 431.8 66 428.5 66.5C426.6 66.6 425.2 67.5 425.2 68.7C425.2 69.3 426 70 427.8 70C434 70 439 69.2 444.6 69.2C450.2 69.2 456.4 70 462.6 70C464.7 70 465.9 70 465.9 68.4C465.9 66.8 464 66.5 460.5 65.7C455.6 64.6 453.8 59.9 451.5 56.1L418.6 2.6C417.8 1.4 417.1 0.5 416.6 0.5C415.4 0.5 414.8 1.4 413.1 3.9L377.2 61.4Z" fill="black"></path></g><mask id="mask3_1_436" style="mask-type:luminance" maskUnits="userSpaceOnUse" x="0" y="0" width="679" height="72"><path d="M679 0H0V72H679V0Z" fill="white"></path></mask><g mask="url(#mask3_1_436)"><path d="M225 9.80002C225 6.20003 226.9 5.10002 233.7 5.10002C244.8 5.10002 253 13.3 253 20.4C253 30.3 245.6 32.9 234 32.9C225.7 32.9 225 30.6 225 29.4V9.80002ZM207.6 57.8C207.6 61.1 205.6 64.9 200.6 66C199.3 66.3 197.1 66.8 197.1 68.4C197.1 70 199 70 200.8 70C206 70 210 69.2 215.2 69.2C220.4 69.2 225.5 70 230.7 70C236.6 70 238.2 69.7 238.2 68.4C238.2 66.8 237.2 66.1 235.5 66C230.1 65.7 224.7 63.9 224.7 55.8V38.9C224.7 37.6 226.6 37.1 230 37.1C234.8 37.1 238.7 39 240.9 42.1L256 63.4C258.8 67.4 263.4 69.4 267.1 69.4C271.4 69.4 284.7 69.4 284.7 65.1C284.7 64 284.2 63.3 282.6 63.3C281.4 63.3 280 63.6 278.6 63.6C277.4 63.6 276.4 63 275.1 61.9C268.8 56.4 254.3 36.6 254.3 35.1C254.3 34.1 258 33.5 260.6 32.4C265.9 30 270.3 26.5 270.3 19.8C270.3 3.40002 252.3 0.900024 235 0.900024C229.3 0.900024 219.8 1.70002 212.8 1.70002C203.6 1.70002 200.1 0.900024 197 0.900024C193.9 0.900024 193.4 1.50002 193.4 2.50002C193.4 4.10002 194.4 4.70002 196.1 4.90002C201.5 5.50002 207.5 7.30002 207.5 13.1V57.8H207.6Z" fill="black"></path></g><mask id="mask4_1_436" style="mask-type:luminance" maskUnits="userSpaceOnUse" x="0" y="0" width="679" height="72"><path d="M679 0H0V72H679V0Z" fill="white"></path></mask><g mask="url(#mask4_1_436)"><path d="M301.2 13.2C301.2 7.00002 294.8 4.90002 289.4 4.90002C287.7 4.90002 286.7 4.10002 286.7 2.70002C286.7 1.70002 287.6 0.900024 289 0.900024C295.2 0.900024 301.6 1.70002 307.8 1.70002C314.2 1.70002 318.6 0.900024 323.5 0.900024C325.3 0.900024 327.3 0.900024 327.3 2.50002C327.3 4.10002 325.1 4.60002 323.8 4.90002C318.7 6.10002 317.3 9.90002 317.3 13.2V56.4C317.3 64 320.6 64.9 327.2 64.9C340.8 64.9 348.4 62.3 352.8 59C357.2 55.7 359.3 52.4 361.9 52.4C362.9 52.4 363.1 53.3 363.1 55.8C363.1 64 354 69.8 343.9 69.8C335.2 69.8 318 69.6 309.3 69.6C304.5 69.6 301.7 69.8 296.9 69.8C293.9 69.8 291.4 69.8 291.4 68.2C291.4 66.6 293.5 66.4 296.3 65C300.7 62.8 301.2 59.1 301.2 55.8V13.2Z" fill="black"></path></g><mask id="mask5_1_436" style="mask-type:luminance" maskUnits="userSpaceOnUse" x="0" y="0" width="679" height="72"><path d="M679 0H0V72H679V0Z" fill="white"></path></mask><g mask="url(#mask5_1_436)"><path d="M494 23.2C491.3 21.1 489.7 19.2 489 19.2C488.4 19.2 488 19.5 488 21.9V55.2C488 60.1 490.2 63.8 496.4 65.3C499.6 66.1 502.8 65.9 502.8 67.8C502.8 69.8 499.7 69.8 497.3 69.8C492.8 69.8 488.2 69 483.7 69C479.2 69 474.6 69.8 470.1 69.8C468.8 69.8 467.4 69.8 467.4 68.2C467.4 66.6 470.2 66.1 472.2 65.3C478.9 62.5 481 59.6 481 54.1V18.8C481 15 479.1 9.49998 474.3 7.69998C470 6.09998 466.9 5.79998 466.9 4.19998C466.9 2.59998 467.7 2.59998 468.6 2.59998C472.5 2.59998 476.4 2.99998 480.3 2.99998C484.2 2.99998 487.5 2.59998 491.4 2.59998C492.5 2.59998 495.8 6.29998 497.2 7.29998L547 47.5C548.8 48.9 550.6 50.2 551.4 50.2C552.4 50.2 552.6 45.3 552.6 43.9L553 21.3C553 14.5 553.6 8.89998 544 7.19998C540.6 6.59998 537.1 5.89998 537.1 4.29998C537.1 2.69998 539.6 2.69998 541.9 2.69998C546.4 2.69998 551 3.49998 555.5 3.49998C560 3.49998 563.9 2.69998 568.4 2.69998C569.7 2.69998 571.1 2.69998 571.1 4.29998C571.1 5.89998 569.5 6.39998 567.6 7.19998C560.9 9.99998 559.3 12.9 559.3 18.4L559.6 66.5C559.6 70.9 559.1 72.1 557.5 72.1C556.1 72.1 552.7 69.6 549.5 67.1L494 23.2Z" fill="black"></path></g><mask id="mask6_1_436" style="mask-type:luminance" maskUnits="userSpaceOnUse" x="0" y="0" width="679" height="72"><path d="M679 0H0V72H679V0Z" fill="white"></path></mask><g mask="url(#mask6_1_436)"><path d="M605.4 14.8C605.4 9.70002 606.9 6.80002 615 6.80002C638.4 6.80002 654.4 19.1 654.4 38.4C654.4 57.6 638.8 67.3 620 67.3C607.6 67.3 605 65.6 605 56.1L605.4 14.8ZM588.6 56.8C588.6 60.7 588.3 66.2 583.5 67.5C581.3 68.1 577.9 68.6 577.9 70.1C577.9 71.2 579.7 71.2 581.9 71.2C585.6 71.2 589.9 70.4 593.6 70.4C597.8 70.4 607 71.2 620.2 71.2C645.8 71.2 671.3 59 671.3 34.9C671.3 11.6 650.1 2.40002 617.8 2.40002C611.5 2.40002 605.2 3.20002 598.9 3.20002C592.6 3.20002 586.3 2.40002 580 2.40002C576.8 2.40002 575.1 2.80002 575.1 4.70002C575.1 6.10002 577.6 6.20002 582.4 7.30002C586.8 8.20002 588.7 9.30002 588.7 19.1V56.8H588.6Z" fill="black"></path></g><mask id="mask7_1_436" style="mask-type:luminance" maskUnits="userSpaceOnUse" x="0" y="0" width="679" height="72"><path d="M679 0H0V72H679V0Z" fill="white"></path></mask><g mask="url(#mask7_1_436)"><path d="M673.6 4.79999C676.6 4.79999 679 7.19999 679 10.3C679 13.4 676.6 15.8 673.6 15.8C670.6 15.8 668.1 13.4 668.1 10.3C668.2 7.29999 670.6 4.79999 673.6 4.79999ZM673.6 5.69999C671.2 5.69999 669.2 7.79999 669.2 10.3C669.2 12.9 671.2 15 673.6 15C676.1 15 678 12.9 678 10.4C678 7.79999 676.1 5.69999 673.6 5.69999ZM672.6 13.5H671.6V7.39999C672.1 7.29999 672.6 7.29999 673.3 7.29999C674.2 7.29999 674.8 7.49999 675.2 7.79999C675.6 8.09999 675.8 8.49999 675.8 9.09999C675.8 9.89999 675.3 10.4 674.6 10.6C675.1 10.7 675.5 11.2 675.6 12.1C675.7 13.1 675.9 13.4 676 13.6H675C674.9 13.4 674.7 12.8 674.6 12C674.5 11.2 674.1 10.9 673.3 10.9H672.6V13.5ZM672.6 10.1H673.3C674.1 10.1 674.8 9.79999 674.8 8.99999C674.8 8.49999 674.4 7.89999 673.3 7.89999C673 7.89999 672.8 7.89999 672.6 7.89999V10.1Z" fill="black"></path></g></g><defs><clipPath id="clip0_1_436"><rect width="679" height="72" fill="white"></rect></clipPath></defs></svg> 