<?xml version="1.0" encoding="UTF-8"?> <svg xmlns="http://www.w3.org/2000/svg" width="230" height="62" viewBox="0 0 230 62" fill="none"><g clip-path="url(#clip0_1_472)"><path d="M30.59 61.17C24.5394 61.172 18.6242 59.3796 13.5924 56.0195C8.56057 52.6595 4.63822 47.8826 2.3214 42.2932C0.00458217 36.7038 -0.602629 30.5529 0.576563 24.6183C1.75576 18.6838 4.66838 13.2322 8.94607 8.95314C13.2238 4.67405 18.6744 1.75965 24.6085 0.578515C30.5427 -0.602618 36.6938 0.00258064 42.284 2.31757C47.8742 4.63256 52.6522 8.55335 56.014 13.5841C59.3757 18.6148 61.17 24.5294 61.17 30.58C61.1713 34.5967 60.3813 38.5742 58.8451 42.2855C57.3089 45.9968 55.0566 49.3691 52.2169 52.2098C49.3771 55.0505 46.0056 57.3039 42.2948 58.8413C38.584 60.3787 34.6067 61.17 30.59 61.17ZM30.59 1.44C24.8238 1.43802 19.1866 3.14621 14.3914 6.3485C9.59615 9.55078 5.85836 14.1033 3.65083 19.4302C1.4433 24.757 0.865186 30.619 1.98963 36.2744C3.11407 41.9299 5.89054 47.1249 9.96784 51.2022C14.0451 55.2795 19.2401 58.0559 24.8956 59.1804C30.5511 60.3048 36.413 59.7267 41.7398 57.5192C47.0667 55.3116 51.6192 51.5739 54.8215 46.7786C58.0238 41.9834 59.732 36.3462 59.73 30.58C59.7274 22.8524 56.6564 15.4421 51.1922 9.97784C45.7279 4.5136 38.3176 1.44265 30.59 1.44ZM56.5 39.3C56.5 39.3 56.44 39.37 56.35 39.3C56.26 39.23 56.25 39.24 56.26 39.2C56.8982 37.0845 57.2349 34.8895 57.26 32.68C57.26 28.94 55.74 26.68 53.79 26.68C53.5169 26.6795 53.2467 26.7349 52.9959 26.8429C52.745 26.9508 52.519 27.1089 52.3316 27.3076C52.1442 27.5062 51.9995 27.7411 51.9064 27.9977C51.8132 28.2544 51.7736 28.5274 51.79 28.8C51.79 31.09 54.58 31.26 54.58 36.26C54.5382 38.3387 54.1669 40.3976 53.48 42.36C50.35 52.95 40.35 57.86 30.61 57.86C27.672 57.9375 24.7443 57.4801 21.97 56.51C21.9528 56.485 21.9436 56.4554 21.9436 56.425C21.9436 56.3946 21.9528 56.365 21.97 56.34C21.97 56.34 22.06 56.24 22.1 56.26C24.2046 56.9306 26.4011 57.268 28.61 57.26C32.34 57.26 34.54 55.73 34.54 53.87C34.5427 53.5922 34.4899 53.3166 34.3848 53.0594C34.2797 52.8022 34.1244 52.5685 33.928 52.3721C33.7315 52.1756 33.4978 52.0203 33.2406 51.9152C32.9834 51.8101 32.7078 51.7573 32.43 51.76C30.14 51.76 29.97 54.63 25.05 54.63C22.9453 54.5876 20.8601 54.2165 18.87 53.53C8.36 50.31 3.36 40.4 3.37 30.53C3.36805 27.599 3.83045 24.6863 4.74 21.9C4.74 21.9 4.81 21.85 4.89 21.9C4.97 21.95 4.98 21.99 4.97 22.01C4.31832 24.1224 3.98137 26.3194 3.97 28.53C3.97 32.26 5.49 34.46 7.45 34.46C7.98044 34.46 8.48914 34.2493 8.86422 33.8742C9.23929 33.4991 9.45 32.9904 9.45 32.46C9.45 30.17 6.65 29.92 6.65 25C6.69076 22.8951 7.06195 20.8097 7.75 18.82C10.97 8.31 20.89 3.39 30.63 3.31C33.5555 3.28358 36.464 3.75705 39.23 4.71C39.2432 4.73281 39.2501 4.75867 39.2501 4.785C39.2501 4.81133 39.2432 4.8372 39.23 4.86C39.23 4.95 39.15 4.95 39.12 4.95C37.0264 4.21188 34.8197 3.84636 32.6 3.87C28.96 3.87 26.67 5.39 26.67 7.34C26.6695 7.61306 26.7249 7.88332 26.8329 8.13414C26.9408 8.38496 27.0989 8.61102 27.2976 8.79839C27.4962 8.98577 27.7311 9.13049 27.9877 9.22364C28.2444 9.31678 28.5174 9.35639 28.79 9.34C31.08 9.34 31.25 6.55 36.16 6.55C38.2747 6.6088 40.367 7.00026 42.36 7.71C52.95 10.93 57.77 20.92 57.87 30.58C57.9069 33.543 57.4437 36.491 56.5 39.3ZM41.94 32.03C41.2981 31.9992 40.6564 32.0962 40.0523 32.3155C39.4482 32.5348 38.8937 32.8719 38.4211 33.3074C37.9484 33.7428 37.567 34.2679 37.299 34.852C37.031 35.4361 36.8818 36.0677 36.86 36.71C36.86 38.83 38.12 40.52 39.86 40.52C40.0122 40.534 40.1656 40.5159 40.3103 40.4668C40.455 40.4177 40.5878 40.3388 40.7 40.235C40.8122 40.1313 40.9013 40.0051 40.9616 39.8647C41.0219 39.7243 41.0521 39.5728 41.05 39.42C41.05 38.32 39.59 38.05 39.7 36.42C39.7622 35.9093 40.0132 35.4404 40.4037 35.1054C40.7941 34.7705 41.2958 34.5937 41.81 34.61C43.81 34.61 44.81 36.61 44.81 38.61C44.8259 39.2946 44.7065 39.9755 44.4585 40.6138C44.2106 41.2521 43.839 41.8352 43.3652 42.3295C42.8913 42.8238 42.3245 43.2196 41.6972 43.4943C41.07 43.7689 40.3946 43.917 39.71 43.93C36.15 43.93 33.87 40.54 33.87 36.93C33.87 31.51 37.43 29.39 39.29 28.93C39.29 28.93 44.16 29.8 44.01 27.66C43.94 26.72 42.54 26.36 41.53 26.32C40.7616 26.3101 39.9973 26.4319 39.27 26.68C38.6717 26.336 38.2253 25.7789 38.02 25.12C41.49 22.49 43.95 19.95 43.95 17.07C43.9654 16.6773 43.8974 16.2859 43.7504 15.9214C43.6034 15.557 43.3809 15.2278 43.0974 14.9557C42.8139 14.6835 42.4759 14.4746 42.1058 14.3426C41.7356 14.2106 41.3417 14.1586 40.95 14.19C37.48 14.19 34.85 18.6 34.85 22.58C34.8185 23.2347 34.8757 23.8906 35.02 24.53C32.8282 26.1061 30.5586 27.5713 28.22 28.92C28.2512 28.0556 28.3582 27.1956 28.54 26.35C29.54 25.25 30.96 23.59 30.96 22.35C30.974 22.2105 30.9586 22.0697 30.9146 21.9365C30.8707 21.8034 30.7993 21.681 30.705 21.5773C30.6107 21.4736 30.4956 21.3909 30.3673 21.3345C30.2389 21.2781 30.1002 21.2493 29.96 21.25C28.27 21.25 26.96 23.79 26.66 25.57C25.89 26.51 24.37 27.69 23.1 27.69C22.7504 27.6731 22.4169 27.5384 22.1536 27.3078C21.8903 27.0772 21.7128 26.7643 21.65 26.42C24.88 25.32 28.86 20.91 28.86 16.93C28.8834 16.5532 28.8235 16.1759 28.6846 15.8248C28.5456 15.4738 28.3311 15.1577 28.0561 14.899C27.7812 14.6403 27.4526 14.4453 27.0938 14.3279C26.735 14.2106 26.3547 14.1737 25.98 14.22C22.16 14.22 18.98 19.9 18.98 24.3C17.62 24.3 17.11 22.86 17.11 21.76C17.1874 20.9035 17.3312 20.0543 17.54 19.22C17.5513 19.1242 17.5422 19.0271 17.5131 18.9352C17.4841 18.8432 17.4358 18.7584 17.3715 18.6866C17.3072 18.6147 17.2283 18.5573 17.1401 18.5182C17.0519 18.4792 16.9565 18.4593 16.86 18.46C15.59 18.46 14.86 20.15 14.86 22.1C14.8246 23.267 15.2493 24.4012 16.0425 25.2579C16.8356 26.1147 17.9337 26.6254 19.1 26.68C19.2624 27.5226 19.7003 28.2873 20.3447 28.8538C20.9891 29.4204 21.8036 29.7568 22.66 29.81C23.8938 29.8289 25.0946 29.4109 26.05 28.63C25.96 29.22 25.88 29.73 25.79 30.24C22.07 32.24 19.35 33.54 16.9 35.74C15.1488 37.2668 14.0707 39.4229 13.9 41.74C13.8638 42.3943 13.9661 43.0488 14.2001 43.6609C14.434 44.273 14.7944 44.8289 15.2578 45.2922C15.7211 45.7556 16.277 46.116 16.8891 46.35C17.5012 46.5839 18.1557 46.6862 18.81 46.65C22.71 46.65 25.68 43.52 27.11 39.2C27.7819 36.6823 28.1578 34.0948 28.23 31.49C30.9212 30.0102 33.5194 28.3671 36.01 26.57C36.2242 26.9564 36.5131 27.2964 36.86 27.57C35.03 28.4456 33.4909 29.8299 32.4269 31.5572C31.3628 33.2845 30.8188 35.2817 30.86 37.31C30.86 41.72 33.86 46.63 39.67 46.63C41.7637 46.5992 43.7635 45.7558 45.2469 44.278C46.7304 42.8002 47.5813 40.8036 47.62 38.71C47.62 35.24 45.62 32.02 41.94 32.02M18.64 43.89C18.356 43.918 18.0693 43.8826 17.8006 43.7865C17.5318 43.6904 17.2878 43.5358 17.086 43.334C16.8842 43.1322 16.7296 42.8882 16.6335 42.6194C16.5374 42.3507 16.502 42.064 16.53 41.78C16.53 38.13 21.58 34.66 25.39 32.78C24.71 37.87 22.99 43.68 18.64 43.88M21.44 23.88C21.44 21.08 24.2 15.77 25.89 16.33C27.89 17 24.23 22.33 21.44 23.88ZM37.44 22.61C37.44 19.13 39.79 15.76 41.07 16.4C42.54 17.13 39.98 20.4 37.44 22.61Z" fill="black"></path><path d="M76.8 30.62C76.7982 29.8399 76.9536 29.0675 77.2568 28.3488C77.56 27.63 78.0048 26.9797 78.5647 26.4365C79.1247 25.8934 79.7882 25.4686 80.5159 25.1874C81.2435 24.9063 82.0203 24.7745 82.8 24.8C84.4687 24.7455 86.0955 25.3283 87.35 26.43L85.52 28.62C84.7753 27.9631 83.8129 27.6067 82.82 27.62C82.4287 27.6289 82.043 27.7159 81.6858 27.8759C81.3285 28.0358 81.0067 28.2655 80.7394 28.5515C80.4721 28.8374 80.2646 29.1739 80.129 29.5411C79.9934 29.9084 79.9326 30.299 79.95 30.69C79.9352 31.0931 80.0019 31.4951 80.146 31.8719C80.2901 32.2486 80.5088 32.5925 80.7888 32.8828C81.0689 33.1731 81.4046 33.404 81.776 33.5616C82.1473 33.7192 82.5466 33.8003 82.95 33.8C83.5837 33.8288 84.2112 33.6649 84.75 33.33V31.91H82.54V29.64H87.69V34.64C86.3238 35.7702 84.603 36.3827 82.83 36.37C82.052 36.4065 81.2747 36.2849 80.5451 36.0124C79.8155 35.74 79.1487 35.3224 78.585 34.7849C78.0213 34.2474 77.5726 33.6012 77.2657 32.8854C76.9589 32.1695 76.8005 31.3989 76.8 30.62Z" fill="black"></path><path d="M91.12 24.98H100.12V27.62H94.12V29.32H99.5V31.77H94.12V33.55H100.12V36.19H91.12V24.98Z" fill="black"></path><path d="M113.26 24.9H116.26L121.03 36.19H117.7L116.88 34.19H112.56L111.76 36.19H108.49L113.26 24.9ZM115.98 31.77L114.74 28.58L113.47 31.77H115.98Z" fill="black"></path><path d="M123.71 24.98H128.51C131.34 24.98 133.17 26.44 133.17 28.92C133.17 31.56 131.17 32.92 128.35 32.92H126.81V36.13H123.71V24.98ZM128.29 30.55C129.39 30.55 130.06 29.98 130.06 29.1C130.06 28.1 129.39 27.63 128.27 27.63H126.81V30.63L128.29 30.55Z" fill="black"></path><path d="M136.12 24.98H140.92C143.75 24.98 145.58 26.44 145.58 28.92C145.58 31.56 143.58 32.92 140.76 32.92H139.22V36.13H136.12V24.98ZM140.7 30.55C141.8 30.55 142.47 29.98 142.47 29.1C142.47 28.1 141.8 27.63 140.68 27.63H139.22V30.63L140.7 30.55Z" fill="black"></path><path d="M148.44 24.98H151.55V33.47H156.98V36.19H148.44V24.98Z" fill="black"></path><path d="M159.97 24.98H163.12V36.19H160L159.97 24.98Z" fill="black"></path><path d="M170.61 24.9H173.61L178.38 36.19H175.05L174.23 34.19H169.91L169.11 36.19H165.84L170.61 24.9ZM173.33 31.77L172.12 28.58L170.85 31.77H173.33Z" fill="black"></path><path d="M181.05 24.98H183.95L188.56 30.9V24.98H191.63V36.19H188.91L184.12 30.04V36.19H181.04L181.05 24.98Z" fill="black"></path><path d="M194.83 30.6199C194.82 29.8453 194.967 29.0767 195.262 28.3603C195.557 27.6438 195.993 26.9943 196.545 26.4508C197.097 25.9072 197.753 25.4808 198.474 25.1971C199.195 24.9134 199.966 24.7783 200.74 24.7999C201.664 24.7577 202.583 24.949 203.414 25.3563C204.244 25.7635 204.958 26.3736 205.49 27.1299L203.12 28.8999C202.847 28.5002 202.482 28.1723 202.056 27.9442C201.629 27.7161 201.154 27.5946 200.67 27.5899C200.295 27.6022 199.925 27.6907 199.585 27.85C199.245 28.0094 198.941 28.2363 198.691 28.5169C198.441 28.7975 198.251 29.126 198.132 29.4824C198.014 29.8388 197.969 30.2156 198 30.5899C197.969 30.9643 198.014 31.3411 198.132 31.6975C198.251 32.0539 198.441 32.3824 198.691 32.663C198.941 32.9436 199.245 33.1705 199.585 33.3298C199.925 33.4892 200.295 33.5777 200.67 33.5899C201.171 33.5867 201.663 33.4611 202.104 33.2241C202.545 32.987 202.921 32.6457 203.2 32.2299L205.54 33.8899C204.828 34.9126 203.81 35.6834 202.632 36.0917C201.454 36.5001 200.178 36.5251 198.985 36.163C197.793 35.801 196.745 35.0707 195.993 34.0767C195.242 33.0826 194.824 31.8761 194.8 30.6299L194.83 30.6199Z" fill="black"></path><path d="M208.49 24.98H217.49V27.62H211.56V29.32H216.93V31.77H211.56V33.55H217.56V36.19H208.47L208.49 24.98Z" fill="black"></path><path d="M219.92 34.5201L221.65 32.4601C222.668 33.3134 223.951 33.787 225.28 33.8001C226.11 33.8001 226.56 33.5101 226.56 33.0301C226.56 32.5701 226.19 32.3101 224.67 31.9601C222.28 31.4201 220.44 30.7401 220.44 28.4401C220.44 26.3501 222.09 24.8501 224.78 24.8501C226.445 24.7822 228.08 25.3105 229.39 26.3401L227.84 28.5301C226.928 27.8549 225.834 27.4714 224.7 27.4301C223.95 27.4301 223.58 27.7501 223.58 28.1501C223.58 28.6601 223.97 28.8901 225.52 29.2401C228.09 29.8001 229.7 30.6301 229.7 32.7301C229.7 35.0201 227.89 36.3801 225.17 36.3801C223.251 36.4254 221.382 35.7634 219.92 34.5201Z" fill="black"></path></g><defs><clipPath id="clip0_1_472"><rect width="229.69" height="61.17" fill="white"></rect></clipPath></defs></svg> 