<?xml version="1.0" encoding="UTF-8"?> <svg xmlns="http://www.w3.org/2000/svg" width="102" height="32" viewBox="0 0 102 32" fill="none"><g clip-path="url(#clip0_1_486)"><path d="M58.9 0C57.1 0 55.6 1.5 55.6 3.3C55.6 5.1 57.1 6.6 58.9 6.6C60.7 6.6 62.2 5.1 62.2 3.3C62.2 1.5 60.7 0 58.9 0Z" fill="#005AAA"></path><path d="M88.3 21.1C88.3 20.7 88.4 20.3 88.4 19.9C88.4 13.6 83.2 8.5 76.7 8.5C70.2 8.5 65 13.6 65 19.9C65 26.2 70.2 31.3 76.7 31.3C81.6 31.3 85.8 28.3 87.5 24.2L82.5 23.3C81.4 25.3 79.3 26.7 76.9 26.7C73.7 26.7 71 24.3 70.5 21.1H88.3ZM76.9 13.2C79.6 13.2 82 15 82.9 17.5H70.8C71.8 15 74.1 13.2 76.9 13.2Z" fill="#005AAA"></path><path d="M61.9 9H55.9V31H61.9V9Z" fill="#005AAA"></path><path d="M19.4 1.90002V13.7H6.5V1.90002H0V30.9H6.5V19.1H19.4V30.9H25.9V1.90002H19.4Z" fill="#005AAA"></path><path d="M46.3 9V10.2C44.6 9.2 42.5 8.5 40.4 8.5C34.1 8.5 28.9 13.6 28.9 19.9C28.9 26.2 34 31.3 40.4 31.3C42.5 31.3 44.5 30.7 46.2 29.7V30.8H52V9H46.3ZM40.7 26.5C37 26.5 34 23.5 34 19.9C34 16.3 37 13.3 40.7 13.3C44.4 13.3 47.4 16.3 47.4 19.9C47.3 23.6 44.3 26.5 40.7 26.5Z" fill="#005AAA"></path><path d="M100.7 6.90002C95.2 7.90002 91 12.6 91 18.4V30.9H96.7V18.2C96.7 15.3 98.9 12.9 101.7 12.5L100.7 6.90002Z" fill="#005AAA"></path></g><defs><clipPath id="clip0_1_486"><rect width="101.7" height="31.3" fill="white"></rect></clipPath></defs></svg> 