<?xml version="1.0" encoding="UTF-8"?> <svg xmlns="http://www.w3.org/2000/svg" width="153" height="53" viewBox="0 0 153 53" fill="none"><path d="M69.905 23.6831H60.3187C60.2766 23.6831 60.2424 23.7172 60.2424 23.7596V37.1286C60.2424 37.1707 60.2766 37.2049 60.3187 37.2049H68.8789C68.9073 37.2049 68.9334 37.189 68.9467 37.1637L69.9725 35.1624C69.9989 35.1115 69.9621 35.0511 69.905 35.0511H62.7466V31.4685H65.9976C66.0269 31.4685 66.0535 31.4517 66.0662 31.4253L67.1018 29.4047C67.1263 29.3542 67.0893 29.2955 67.0332 29.2955H62.7466V25.8367H68.8651C68.8936 25.8367 68.9198 25.8209 68.9328 25.7957L69.9724 23.7943C69.9988 23.7436 69.962 23.6831 69.905 23.6831Z" fill="black"></path><path d="M100.406 31.8043L91.7707 23.4684C91.6761 23.3676 91.5068 23.4345 91.5068 23.5727V37.1289C91.5068 37.171 91.541 37.2051 91.5831 37.2051H93.9154C93.9576 37.2051 93.9917 37.171 93.9917 37.1289L93.993 29.0938L102.627 37.443C102.722 37.5439 102.891 37.4769 102.891 37.3386V25.7497C102.891 25.7284 102.882 25.7081 102.866 25.6937L100.534 23.4405C100.485 23.3954 100.406 23.4299 100.406 23.4963V31.8043Z" fill="black"></path><path d="M109.544 37.1604C109.531 37.1874 109.504 37.205 109.474 37.205H106.595C106.539 37.205 106.502 37.1474 106.526 37.0968L113.594 23.5087C113.648 23.3907 113.816 23.3902 113.871 23.508L120.942 37.0964C120.966 37.1471 120.929 37.205 120.873 37.205H118.066C118.036 37.205 118.009 37.1873 117.996 37.1602C117.996 37.1602 113.774 28.734 113.763 28.734L109.544 37.1604Z" fill="black"></path><path d="M143.076 37.0836L138.203 32.5149C139.7 31.6875 140.701 30.0815 140.646 28.2531C140.57 25.6898 138.382 23.6831 135.797 23.6831H130.483C130.422 23.6831 130.385 23.7513 130.419 23.8021L132.91 26.1604C132.924 26.1818 132.948 26.1946 132.974 26.1946H135.834C137.018 26.1946 138.038 27.1126 138.097 28.2856C138.158 29.5221 137.177 30.5496 135.951 30.578H132.777C132.714 30.578 132.678 30.6484 132.714 30.6992L139.496 37.1744C139.51 37.1937 139.534 37.2051 139.558 37.2051H143.013C143.076 37.2048 143.113 37.1342 143.076 37.0836Z" fill="black"></path><path d="M127.177 23.4962V37.1287C127.177 37.1709 127.142 37.205 127.1 37.205H124.678C124.636 37.205 124.602 37.1709 124.602 37.1287V25.806C124.602 25.7847 124.611 25.7643 124.627 25.7499L127.049 23.4399C127.098 23.3954 127.177 23.4301 127.177 23.4962Z" fill="black"></path><path d="M83.6631 31.8044L75.0278 23.4684C74.9332 23.3676 74.7639 23.4345 74.7639 23.5728V37.129C74.7639 37.171 74.7981 37.2052 74.8401 37.2052H77.1724C77.2147 37.2052 77.2486 37.171 77.2486 37.129L77.25 29.0937L85.8841 37.443C85.9787 37.5439 86.1478 37.4769 86.1478 37.3387V25.7496C86.1478 25.7284 86.139 25.7082 86.1235 25.6937L83.7912 23.4405C83.7424 23.3954 83.6632 23.4299 83.6632 23.4963L83.6631 31.8044Z" fill="black"></path><path d="M44.3911 33.8446C44.3911 35.6873 45.9165 37.175 47.7582 37.1902L47.758 37.1943H47.7861H51.4928H51.5211L51.5208 37.1902C53.3625 37.1751 54.8879 35.6873 54.8879 33.8446V23.4942C54.8879 23.428 54.7846 23.3959 54.7357 23.4408L52.3482 25.7052C52.3324 25.7195 52.3132 25.7398 52.3132 25.7611V33.3126C52.3132 34.2386 51.5824 35.0141 50.6553 35.0141H48.6238C47.6968 35.0141 46.9659 34.2889 46.9659 33.3126V31.5331C46.9659 31.4669 46.8606 31.4309 46.8117 31.4758L44.43 33.7325C44.4141 33.7469 44.3912 33.7664 44.3912 33.7878L44.3911 33.8446Z" fill="black"></path><path d="M9.90952 33.6984L20.6197 23.4851V36.8474C20.6197 37.1307 21.1872 37.3605 21.887 37.3605C22.5869 37.3605 23.1587 37.1308 23.1587 36.8474V9.90918L33.8833 20.127V41.3373C33.8833 41.9283 33.4086 42.4077 32.8199 42.4168L32.8188 42.4176H10.9897C10.393 42.4176 9.90942 41.9339 9.90942 41.3374L9.90952 33.6984Z" fill="black"></path><path d="M145.776 24.9904C145.776 25.7323 145.195 26.3139 144.437 26.3139C143.688 26.3139 143.09 25.7323 143.09 24.9904C143.09 24.2654 143.688 23.6831 144.437 23.6831C145.195 23.6831 145.776 24.2653 145.776 24.9904ZM143.425 24.9904C143.425 25.5728 143.856 26.0348 144.445 26.0348C145.02 26.0348 145.442 25.5728 145.442 24.9987C145.442 24.4165 145.02 23.9466 144.437 23.9466C143.856 23.9465 143.425 24.4165 143.425 24.9904ZM144.23 25.6765H143.927V24.3693C144.046 24.3453 144.214 24.3289 144.429 24.3289C144.677 24.3289 144.788 24.3693 144.884 24.4251C144.955 24.4804 145.011 24.584 145.011 24.7121C145.011 24.8556 144.899 24.967 144.74 25.0147V25.0308C144.868 25.0787 144.94 25.1741 144.979 25.3494C145.019 25.5489 145.043 25.6286 145.076 25.6767H144.748C144.709 25.6287 144.685 25.5093 144.644 25.3574C144.621 25.2138 144.541 25.1502 144.374 25.1502H144.23V25.6765ZM144.238 24.9352H144.382C144.549 24.9352 144.685 24.8794 144.685 24.7437C144.685 24.6243 144.597 24.5443 144.406 24.5443C144.326 24.5443 144.27 24.5521 144.238 24.5599V24.9352Z" fill="black"></path></svg> 