<?xml version="1.0" encoding="UTF-8"?> <svg xmlns="http://www.w3.org/2000/svg" width="434" height="43" viewBox="0 0 434 43" fill="none"><g clip-path="url(#clip0_1_666)"><path d="M107.467 35.9866C104.573 35.9866 102.197 33.6715 102.197 30.7776V23.1853H110.773V16.0357H102.197V6.23047H85.1811V16.0357H80.0489V23.1853H85.1811V33.4332V33.7736C85.1811 38.8805 90.8989 43.0001 97.96 43.0001C104.057 43.0001 108.431 41.3999 110.739 40.2764V34.829C109.843 35.5781 108.672 35.9866 107.467 35.9866Z" fill="#C41239"></path><path d="M74.6067 16.0356H57.7978V41.4679H74.6067V16.0356Z" fill="#C41239"></path><path d="M66.2022 12.3245C70.8178 12.3245 74.5722 9.60086 74.5722 6.19627C74.5722 2.79168 70.8178 0.102051 66.2022 0.102051C61.5867 0.102051 57.8322 2.82573 57.8322 6.19627C57.8322 9.56682 61.5867 12.3245 66.2022 12.3245Z" fill="#C41239"></path><path d="M220.789 30.8797H244.452C244.452 30.8797 245.107 24.7514 242.041 20.8702C238.734 16.7166 232.087 14.2993 224.784 14.2993C217.482 14.2993 203.808 16.0697 203.808 28.8369C203.808 41.6041 216.518 43.0341 224.75 43.0341C240.422 43.0341 244.004 39.4252 244.004 39.4252V34.2162C239.044 35.8504 233.843 36.6675 228.608 36.6675C219.928 36.6675 220.789 31.833 220.789 30.8797ZM220.789 24.9216V24.0705C220.789 21.8235 222.649 19.985 224.922 19.985C227.196 19.985 229.056 21.8235 229.056 24.0705V24.9557V25.0238H220.789V24.9216Z" fill="#C41239"></path><path d="M184.14 15.2524C180.282 15.2524 176.666 17.0228 174.461 18.5889V2.45117H157.652V41.4678H174.427V29.1091C174.427 26.8621 176.287 25.0236 178.56 25.0236C180.833 25.0236 182.693 26.8621 182.693 29.1091C182.693 29.1091 182.693 29.1091 182.693 29.1432V41.4678H198.056V26.6919C198.056 24.0022 194.887 15.2524 184.14 15.2524Z" fill="#C41239"></path><path d="M277.278 15.2524C273.42 15.2524 269.803 17.0228 267.599 18.5889V16.0355H250.79V41.4678H267.564V29.1091C267.564 26.8621 269.424 25.0236 271.698 25.0236C273.971 25.0236 275.831 26.8621 275.831 29.1091C275.831 29.1091 275.831 29.1091 275.831 29.1432V41.4678H291.228V26.6919C291.228 24.0022 288.024 15.2524 277.278 15.2524Z" fill="#C41239"></path><path d="M369.486 16.0356H352.677V41.4679H369.486V16.0356Z" fill="#C41239"></path><path d="M361.081 12.3245C365.697 12.3245 369.451 9.60086 369.451 6.19627C369.451 2.79168 365.697 0.102051 361.081 0.102051C356.466 0.102051 352.711 2.82573 352.711 6.19627C352.711 9.56682 356.466 12.3245 361.081 12.3245Z" fill="#C41239"></path><path d="M327.842 41.4679H347.958L329.874 0H309.759L311.894 4.86857L295.947 41.4679H306.004L309.173 34.1481H324.639L327.842 41.4679ZM313.169 25.0238L316.923 16.4101L320.678 25.0238H313.169Z" fill="#C41239"></path><path d="M44.33 21.517C43.1589 18.7253 40.7133 16.6825 37.7167 16.0356L49.0833 0H33.9967L23.8356 14.4014C23.0433 15.4228 21.8378 16.0356 20.5289 16.0356C20.0811 16.0356 19.7711 16.0697 19.6333 16.0356V0H0V41.4679H19.6333V26.9984C20.46 26.5899 21.3556 26.3856 22.2856 26.3856C24.8 26.3856 27.0389 27.8836 28.0033 30.1647L32.9289 41.4679H53.0444L44.33 21.517Z" fill="#C41239"></path><path d="M141.877 33.9779C136.331 33.9779 131.819 32.2756 131.819 28.6326C131.819 24.9897 136.331 23.3215 141.877 23.3215C145.183 23.3215 148.111 23.9343 149.937 25.194V17.8401C146.217 15.4569 141.119 14.2993 135.436 14.2993C124.172 14.2993 115.044 18.8955 115.044 28.6667C115.044 38.4379 124.207 43.0341 135.47 43.0341C141.119 43.0341 146.251 41.8765 149.971 39.4933V32.1053C148.111 33.365 145.183 33.9779 141.877 33.9779Z" fill="#C41239"></path><path d="M401.174 2.3833V16.7166C398.522 15.3208 395.594 14.2313 391.771 14.2313C382.058 14.2313 374.997 18.6232 374.997 27.8837C374.997 37.1442 382.058 41.5361 391.771 41.5361C395.594 41.5361 398.522 40.4466 401.174 39.0508V41.3999H417.983V2.3833H401.174ZM396.593 32.7523C393.631 32.7523 391.771 30.5733 391.771 27.8837C391.771 25.1941 393.631 23.0151 396.593 23.0151C398.316 23.0492 399.969 23.7301 401.174 24.9217V30.8797C399.969 32.0713 398.316 32.7523 396.593 32.7523Z" fill="#C41239"></path><path d="M430.866 4.35783C430.866 3.06409 429.901 2.34912 428.386 2.34912H426.078V9.02212H427.559V6.46868H428.041L429.832 9.09021L431.382 8.81785L429.557 6.19631C430.383 5.92394 430.9 5.17493 430.866 4.35783ZM428.213 5.41325H427.524V3.50668H428.213C428.937 3.50668 429.316 3.84714 429.316 4.42592C429.35 5.10684 428.937 5.41325 428.213 5.41325Z" fill="#C41239"></path><path d="M428.317 0.102051C425.01 0.102051 422.633 2.45122 422.633 5.85581C422.633 9.2604 424.976 11.5755 428.317 11.5755C431.623 11.5755 434 9.2604 434 5.85581C434 2.45122 431.658 0.102051 428.317 0.102051ZM428.317 10.6222C425.768 10.6222 423.77 8.91994 423.77 5.85581C423.77 2.79168 425.802 1.08938 428.317 1.08938C430.831 1.08938 432.898 2.79168 432.898 5.85581C432.898 8.91994 430.9 10.6222 428.317 10.6222Z" fill="#C41239"></path></g><defs><clipPath id="clip0_1_666"><rect width="434" height="43" fill="white"></rect></clipPath></defs></svg> 