<?xml version="1.0" encoding="UTF-8"?> <svg xmlns="http://www.w3.org/2000/svg" version="1.2" viewBox="0 0 400 174" width="400" height="174"><title>LG Corporation logo - Brandlogos</title><style> .s0 { fill: #bf0c3f } .s1 { fill: #ffffff } .s2 { fill: #6d6e70 } </style><path fill-rule="evenodd" class="s0" d="m86.8 173.8c-48 0-86.8-38.9-86.8-86.9 0-48.1 38.8-86.9 86.8-86.9 48.1 0 86.9 38.8 86.9 86.9 0 48-38.8 86.9-86.9 86.9z"></path><path fill-rule="evenodd" class="s1" d="m83.4 48.8v76.2h24.1v-6.9h-17.2v-69.3h-6.9z"></path><path fill-rule="evenodd" class="s1" d="m59.1 69.5c-5.8 0-10.4-4.6-10.4-10.4 0-5.8 4.6-10.4 10.4-10.4 5.7 0 10.3 4.6 10.3 10.4 0 5.8-4.6 10.4-10.3 10.4z"></path><path class="s1" d="m90.3 14.2c-0.9 0-2.6-0.1-3.5-0.1-40 0-72.7 32.6-72.7 72.8 0 19.5 7.6 37.7 21.3 51.5 13.8 13.7 32 21.3 51.4 21.3 19.5 0 37.7-7.6 51.4-21.3 13.7-13.8 21.3-32 21.3-51.5v-3.3h-51.9v6.8h45c0 0 0 0.8 0 1-2.3 34.3-30.9 61.4-65.7 61.4-17.6 0-34.1-6.8-46.6-19.3-12.5-12.4-19.4-28.9-19.4-46.6 0-17.7 6.9-34.2 19.4-46.6 12.4-12.5 29-19.4 46.6-19.4 0.8 0 2.6 0 3.5 0v-6.7z"></path><path class="s2" d="m239 29.3h-26.1v113h80.1v-22h-54zm111.4 70h21.2v19.8c-3.9 1.5-11.5 2.9-18.8 2.9-23.5 0-31.4-11.9-31.4-36.2 0-24.2 7.5-36.7 31-36.7 13 0 20.5 4.1 26.7 12l16.2-14.9c-9.9-14.2-27.2-18.5-43.4-18.5-36.5 0-55.7 20-55.7 58 0 38.1 17.3 58.4 55.5 58.4 17.5 0 34.7-4.5 44-11v-54.9h-45.3c0 0 0 21.1 0 21.1z"></path></svg> 