<?xml version="1.0" encoding="UTF-8"?> <svg xmlns="http://www.w3.org/2000/svg" width="1000" height="124" viewBox="0 0 1000 124" fill="none"><g clip-path="url(#clip0_1_685)"><path d="M238.9 95.2H270.3V124H180.4V0H269.4V28.8H238.8V48.6H266.7V74.7H238.8V95.2H238.9ZM101.3 124H160.6V0H101.3V124ZM58.4 0H0V124H85.4V90.8H58.4V0ZM654.1 74.6H682V48.5H654.1V28.8H684.7V0H595.7V124H685.6V95.2H654.1V74.6ZM423.4 90.7C423.4 106.9 413.9 117.5 397.7 121.4C390.6 123.1 379.1 124 368.7 124H288.2V0H368.2C378.4 0 389.6 0.9 396.6 2.6C412.4 6.5 421.7 17.1 421.7 33.3C421.7 48.2 412.9 58.4 401.7 61.7C413.7 64.4 423.4 75 423.4 90.7ZM344.7 50.3H352.8C363.6 50.3 367.2 44.9 367.2 37.3C367.2 29.7 363.6 24.3 352.8 24.3H344.7V50.3ZM369 86.3C369 78.2 365.3 72.8 353.7 72.8H344.7V99.8H353.7C365.4 99.7 369 94.3 369 86.3ZM517 45.8H497.2V0H438.8V124H497.2V76.4H517V124H575.4V0H517V45.8ZM967.9 72.3C983.2 65.3 990 53.7 990 37.9C990 19.5 979 7.5 960.6 3C952.5 1.1 939.4 0 927.6 0H855.7V124H911.4V84.5H916.4L937.5 124H1000L967.9 72.3ZM919.5 58.4H911.4V28.8H919.5C930.3 28.8 933.9 34.2 933.9 43.6C933.9 53 930.3 58.4 919.5 58.4ZM815.4 72.3C830.7 65.3 837.5 53.7 837.5 37.9C837.5 19.5 826.5 7.5 808.1 3C800 1.1 786.9 0 775.1 0H703.2V124H758.9V84.5H763.9L785 124H847.5L815.4 72.3ZM766.9 58.4H758.8V28.8H766.9C777.7 28.8 781.3 34.2 781.3 43.6C781.3 53 777.7 58.4 766.9 58.4Z" fill="black"></path></g><defs><clipPath id="clip0_1_685"><rect width="1000" height="124" fill="white"></rect></clipPath></defs></svg> 