<?xml version="1.0" encoding="UTF-8"?> <svg xmlns="http://www.w3.org/2000/svg" width="218" height="148" viewBox="0 0 218 148" fill="none"><path d="M80.45 0L104.24 53.45L88.07 89.78L59.92 26.56H36.34L48.18 0H80.45ZM132.2 0.19L116.08 36.38L142.39 95.48H174.66L132.2 0.19ZM48.05 62.38L33.31 95.48H62.79L48.05 62.38ZM203.39 147.5H207.54V128.76H206.65L198.13 137L189.74 128.81H188.82V147.5H193V138.35L198.16 143.49L203.42 138.38L203.39 147.5ZM14.57 147.5H18.71V128.76H17.83L9.31 137L0.91 128.81H0V147.5H4.14V138.35L9.3 143.49L14.57 138.38V147.5ZM37.43 147.9C43.61 147.9 47.33 143.56 47.33 138.27C47.33 132.98 43.61 128.64 37.43 128.64C31.25 128.64 27.58 132.98 27.58 138.27C27.58 143.56 31.31 147.9 37.43 147.9ZM37.43 143.59C36.3765 143.596 35.345 143.289 34.4662 142.708C33.5874 142.127 32.9009 141.298 32.4936 140.327C32.0864 139.355 31.9767 138.285 32.1786 137.251C32.3805 136.217 32.8848 135.266 33.6276 134.519C34.3704 133.772 35.3182 133.262 36.351 133.055C37.3838 132.847 38.455 132.95 39.4289 133.352C40.4027 133.754 41.2354 134.436 41.8213 135.311C42.4072 136.187 42.72 137.217 42.72 138.27C42.7525 138.975 42.6381 139.678 42.3841 140.337C42.1301 140.995 41.7421 141.593 41.2447 142.093C40.7473 142.593 40.1514 142.985 39.4947 143.242C38.838 143.5 38.1349 143.618 37.43 143.59ZM73.29 128.79H69.15V138.54L57.22 128.76H56.49V147.5H60.63V137.89L72.57 147.5H73.29V128.79ZM92.29 147.9C98.47 147.9 102.19 143.56 102.19 138.27C102.19 132.98 98.47 128.64 92.29 128.64C86.11 128.64 82.44 132.98 82.44 138.27C82.44 143.56 86.17 147.9 92.3 147.9H92.29ZM92.29 143.59C91.2365 143.596 90.205 143.289 89.3262 142.708C88.4474 142.127 87.7609 141.298 87.3536 140.327C86.9464 139.355 86.8367 138.285 87.0386 137.251C87.2405 136.217 87.7448 135.266 88.4876 134.519C89.2304 133.772 90.1782 133.262 91.211 133.055C92.2438 132.847 93.315 132.95 94.2889 133.352C95.2627 133.754 96.0954 134.436 96.6813 135.311C97.2672 136.187 97.58 137.217 97.58 138.27C97.6124 138.974 97.4982 139.677 97.2449 140.334C96.9915 140.992 96.6044 141.589 96.1081 142.089C95.6118 142.589 95.017 142.981 94.3615 143.239C93.706 143.498 93.004 143.617 92.3 143.59H92.29ZM120.23 140H123.87V140.19C123.8 142 122.42 143.6 119.78 143.6C118.361 143.6 117 143.036 115.997 142.033C114.994 141.03 114.43 139.669 114.43 138.25C114.43 136.831 114.994 135.47 115.997 134.467C117 133.464 118.361 132.9 119.78 132.9C121.348 132.906 122.865 133.458 124.07 134.46L126.63 131.19C126.63 131.19 124.73 128.62 119.84 128.62C113.69 128.62 110.25 132.96 110.25 138.25C110.25 143.54 113.69 147.88 119.84 147.88C125.74 147.88 128.66 143.94 128.66 138.56V136.5H120.23V140ZM137.61 147.48H141.78V142.1H146.06L149.69 147.48H154.47V147.17L150.12 141.08L150.32 140.96C151.295 140.418 152.099 139.616 152.643 138.643C153.187 137.67 153.449 136.564 153.4 135.45C153.4 131.45 150.81 128.77 146.13 128.77H137.71L137.61 147.48ZM149.07 135.64C149.07 137.48 147.93 138.41 145.87 138.41H141.78V132.87H145.84C147.9 132.89 149.07 133.87 149.07 135.66V135.64ZM161 147.5H166L167.12 145.07H174.85L176 147.5H181L171.31 128.76H170.57L161 147.5ZM173.5 141.94H168.5L171 136.6L173.5 141.94ZM213 128.76V129.38H212.06V132.57H211.42V129.38H210.5V128.76H213ZM213.66 128.6L213.77 128.76C213.83 128.85 213.91 128.95 213.99 129.08L214.29 129.48C214.4 129.63 214.51 129.79 214.63 129.94L214.96 130.4C215.07 130.54 215.16 130.68 215.25 130.8L215.47 131.11L215.58 131.26L215.68 131.13L215.89 130.83L216.18 130.43L216.51 129.97L216.85 129.5L217.15 129.08L217.38 128.76C217.425 128.711 217.465 128.657 217.5 128.6V132.6H216.82V130.66C216.815 130.63 216.815 130.6 216.82 130.57C216.823 130.55 216.823 130.53 216.82 130.51L215.56 132.32C215.56 132.32 215.5 132.25 215.44 132.15L215.19 131.82L214.9 131.4L214.6 130.99L214.37 130.67C214.329 130.62 214.292 130.566 214.26 130.51C214.257 130.53 214.257 130.55 214.26 130.57C214.265 130.6 214.265 130.63 214.26 130.66V132.6H213.62L213.66 128.6Z" fill="#DDC07E"></path></svg> 