<?xml version="1.0" encoding="UTF-8"?> <svg xmlns="http://www.w3.org/2000/svg" version="1.2" viewBox="0 0 400 78" width="400" height="78"><title>Smeg 1</title><style> .s0 { fill: #000000 } </style><path fill-rule="evenodd" class="s0" d="m159.1 41.3c0.1 6.6 6.3 9.3 12.3 9.3 2.6 0 10.2-1.4 10.2-6.8 0-5-4.1-5.6-17.5-7.9-8.8-1.5-17.3-5.7-17.3-15.5 0-13.8 11.8-19 23.9-19 12.1 0 23.1 5.2 24.3 18.9h-13.6c0-6-5.5-8.3-11-8.3-4.8 0-9.7 1.6-9.7 6.2 0 5.5 10.4 5.2 19.1 7.3 9.9 2.4 16.8 6.2 16.8 16.5 0 14.7-14.9 19.4-25.3 19.4-12.8 0-26-7-26-20.1zm240.9 11.9c0 11.1-3 24.8-29 24.8-11.6 0-24.3-6.6-24.9-17.7l16.2-0.9c0.8 4.5 4.5 6.4 10.2 6.4 7.9 0 12-4.2 12.5-12l-0.2-5.9c0 0-3.9 6.6-16.3 6.6-16.6 0-24.7-12-24.7-27.2 0-14.3 9.4-27.3 24.2-27.3 13.7 0 17.4 7.6 17.4 7.6v-6.1h14.6zm-28.8-10.8c9.4 0 13.3-7.1 13.8-14 0.5-8.5-4.3-15.8-13.2-15.8-8.9 0-12.7 7.4-13.1 14.5-0.5 7.7 4.6 15.3 12.5 15.3zm-172.2 16.2v-55.2h14.5v7.5h0.2c3.8-5.7 9.7-9 16.5-9 6.7 0 12.8 2.6 15.7 9.3 3.1-4.9 8.8-9.3 16.3-9.3 11.5 0 19.7 5.5 19.7 19.9v36.8h-15.3v-30.7c0-6.3-0.3-13.1-9.1-13.1-3.9 0-9.4 2.4-9.4 12v31.8h-15.3v-30.8c0-6.1-0.7-12.8-9-12.8-2.9 0-9.5 2.2-9.5 11.8v31.8zm100.8-24.2c0 6.5 4.7 13.2 13.3 13.2 6.5 0 10.7-4.8 11.1-6.9l15.7 0.7c-4.4 13.1-14.2 18.4-27.1 18.4-17.8 0-28.6-13.9-28.6-29.5 0-15.5 10.4-29.8 28-29.8 20.2 0 29.6 17.3 28.4 33.9zm24.8-10.8c0-2.6-2.7-11.1-12.2-11.1-9.5 0-12.2 9-12.2 11.1zm-235.3 53.2c-8.7 0-16-6.1-17.7-14.4q0.3-1.8 0.4-3.7-0.1-2-0.4-3.8c1.4-7 7-12.5 14-14q1.8 0.4 3.7 0.4 2 0 3.8-0.4c8.2 1.7 14.4 9 14.4 17.8 0 10-8.1 18.1-18.2 18.1zm-3.7-35.9c-7-1.5-12.6-7-14-14q0.3-1.9 0.4-3.8-0.1-1.9-0.4-3.8c1.7-8.2 9-14.4 17.7-14.4 8.8 0 16 6.2 17.8 14.3q-0.4 1.9-0.4 3.9 0 2 0.4 3.9c-1.5 6.9-7 12.4-14 13.9q-1.8-0.4-3.8-0.4-1.9 0-3.7 0.4zm21.9-17.8q0 2-0.4 3.9c1.8 8.2 9 14.3 17.8 14.3 10 0 18.1-8.1 18.1-18.2 0-10-8.1-18.2-18.1-18.2-8.8 0-16 6.2-17.8 14.3q0.4 1.9 0.4 3.9zm-35.9 3.8c-1.5 7-7 12.5-14 14q-1.9-0.4-3.8-0.4-2 0-3.8 0.4c-8.2-1.7-14.4-9-14.4-17.8 0-10 8.1-18.2 18.2-18.2 8.7 0 16 6.2 17.8 14.4q-0.4 1.9-0.4 3.8 0 1.9 0.4 3.8zm0 35.5c-1.8 8.3-9.1 14.4-17.8 14.4-8.8 0-16.1-6.1-17.8-14.4q0.4-1.8 0.4-3.7 0-2-0.4-3.8c1.5-7 7-12.5 14-14q1.8 0.4 3.8 0.4 1.9 0 3.8-0.4c7 1.5 12.5 7 14 14q-0.4 1.8-0.4 3.8 0 1.9 0.4 3.7zm-35.6 0c-1.7 8.3-9 14.4-17.8 14.4-10 0-18.1-8.1-18.1-18.1 0-10.1 8.1-18.2 18.1-18.2 8.8 0 16.1 6.2 17.8 14.4q-0.4 1.8-0.4 3.8 0 1.9 0.4 3.7z"></path></svg> 