<?xml version="1.0" encoding="UTF-8"?> <svg xmlns="http://www.w3.org/2000/svg" width="167" height="38" viewBox="0 0 167 38" fill="none"><path d="M41.25 9.59009H44.29L46.12 21.3601L48.24 9.59009H51.46L53.58 21.3601L55.39 9.59009H58.43L55.23 28.2901H52.24L49.86 15.3401L47.46 28.2901H44.42L41.25 9.59009Z" fill="black"></path><path d="M58.65 21.5699C58.65 26.8099 60.09 28.5999 63.51 28.5999C66.79 28.5999 67.92 26.1699 67.92 24.0999V23.1699H65.1V23.4999C65.1 24.8199 64.92 25.8999 63.52 25.8999C62.25 25.8999 61.62 25.2799 61.62 23.2199V21.4099H67.93V18.4399C67.93 15.6799 66.73 13.3999 63.44 13.3999C59.81 13.3999 58.65 15.5799 58.65 18.5999V21.5699ZM61.49 18.4899C61.49 17.4499 61.62 15.7299 63.35 15.7299C64.88 15.7299 65.09 17.3199 65.09 18.4699V18.9599H61.49V18.4899Z" fill="black"></path><path d="M83.25 24.7401C83.25 25.5901 83.46 26.2401 83.69 26.8301C83.92 27.4201 84.15 27.8401 84.57 28.3001H81.6C81.25 27.7801 80.99 27.3701 80.84 26.7001C80.59 26.0301 80.56 25.5901 80.56 24.9001V16.1901H74.21C72.71 16.1901 72.42 17.0701 72.4 17.4501C72.27 18.3801 72.81 18.9501 73.56 19.6001L76.41 21.1001C78.04 21.9501 78.64 23.0101 78.64 24.7901C78.64 27.4501 76.49 28.5901 74.08 28.5901C71.47 28.5901 69.32 26.5501 69.32 23.8401V23.3801H72.01V23.5101C72.01 24.8001 72.68 26.2201 74.34 26.1701C75.12 26.1501 75.53 25.7101 75.71 25.0401C76.02 24.1101 75.12 23.3301 74.39 22.9701L71.88 21.5201C70.5 20.5101 69.6 19.6101 69.6 17.6101C69.6 15.2901 71.52 13.7001 74.45 13.7001H80.56V11.0901H83.17V13.7001H85.36V16.1901H83.25V24.7401Z" fill="black"></path><path d="M88.33 9.30005C89.2 9.30005 89.9 9.95005 89.9 10.82C89.9 11.68 89.2 12.32 88.36 12.32C87.49 12.32 86.77 11.68 86.77 10.82C86.77 9.94005 87.46 9.30005 88.33 9.30005ZM86.98 13.73H89.7V28.2901H86.98V13.73Z" fill="black"></path><path d="M96.05 15.9301C95.13 15.9301 94.3 16.7301 94.3 18.0701V28.2901H91.61V13.6801H94.2V14.9201C94.98 13.8301 95.74 13.3901 97.1 13.3901C99.08 13.3901 100.41 15.2301 100.41 17.0901V28.2901H97.67V18.1001C97.67 16.6301 96.83 15.9301 96.05 15.9301Z" fill="black"></path><path d="M104.57 18.9C104.57 17.11 104.93 15.79 106.33 15.79C107.71 15.79 108.04 16.9 108.04 18.9C108.04 20.61 107.76 22.24 106.33 22.24C104.86 22.24 104.57 20.84 104.57 18.9ZM102.04 26.39C102.09 27.42 102.53 28.07 103.86 28.32C101.94 28.65 102.04 29.7701 102.04 30.49C102.04 32.0201 102.91 32.69 105.05 32.69H108.67C111.32 32.69 112.4 31.25 112.37 29.2901C112.35 27.35 111.26 26.01 108.62 26.01H104.21V23.92C102.88 23.91 101.91 25.1 102.04 26.39ZM110.17 15.66C110.43 15.97 110.84 16.1701 111.28 16.2001C112.08 16.2301 112.75 15.61 112.78 14.84C112.81 14.02 112.08 13.34 111.28 13.36C110.51 13.36 109.84 14.02 109.87 14.84C109.87 14.95 109.9 15.0701 109.92 15.1801C109.33 14.26 108.28 13.55 106.39 13.55C101.83 13.55 102.04 16.91 102.04 18.85C102.04 20.6101 101.86 24.4401 106.37 24.4401C110.41 24.4401 110.64 20.95 110.64 18.91C110.63 18.04 110.63 16.77 110.17 15.66ZM104.19 28.3H108.65C109.24 28.3 110.24 28.48 110.24 29.41C110.24 30.47 109.24 30.55 108.65 30.55H104.19V28.3Z" fill="black"></path><path d="M113.51 28.2901V9.59009H116.34V14.9201C117.04 14.0201 117.57 13.3901 119.09 13.3901C121.35 13.3901 122.45 15.1401 122.45 16.8701V28.2901H119.76V17.6501C119.76 16.6901 119.33 15.8401 118.29 15.8401C116.9 15.8401 116.34 16.6901 116.34 17.6501V28.3001H113.51V28.2901Z" fill="black"></path><path d="M132.98 24.5399V21.1699V18.0799C132.98 14.6299 130.75 13.3999 128.64 13.3999C126.33 13.3999 124.28 14.6299 124.28 18.0799V21.1699V24.5399C124.28 27.0699 125.98 28.5899 128.64 28.5899C131.34 28.5799 132.98 27.0699 132.98 24.5399ZM130.4 18.2499V21.0299V23.7899C130.4 25.1799 129.75 25.9499 128.65 25.9499C127.53 25.9499 126.88 25.1799 126.88 23.7899V21.0299V18.2499C126.88 17.0399 127.22 15.9299 128.65 15.9299C130.11 15.9299 130.4 17.0399 130.4 18.2499Z" fill="black"></path><path d="M134.82 13.6899H137.51V23.7699C137.51 25.6799 138.18 26.0999 139.18 26.0999C140.19 26.0999 140.89 25.0899 140.89 23.5399V13.6899H143.52V28.3099H140.94V27.0799C140.19 28.0599 139.18 28.5999 138 28.5999C135.74 28.5999 134.83 26.8999 134.83 23.9399V13.6899H134.82Z" fill="black"></path><path d="M149.3 18.9601L151.8 20.4801C153.6 21.5601 154.25 23.0301 154.2 24.5301C154.15 27.2901 152.29 28.5801 149.66 28.5801C146.34 28.5801 145.01 25.7701 145.01 23.4901V23.2101H147.65V23.3401C147.65 24.5801 148.42 26.0001 150.02 26.0001C151.1 26.0001 152.42 24.0701 149.94 22.6701L147.48 21.1701C146.15 20.4201 145.36 19.1801 145.36 17.5101C145.36 14.8001 147.44 13.3801 149.63 13.3801C154.04 13.3801 153.94 18.0701 153.94 18.0701H151.25C151.25 18.0701 151.25 16.3201 149.91 15.9601C148.6 15.6101 146.67 17.4101 149.3 18.9601Z" fill="black"></path><path d="M155.58 21.5699C155.58 26.8099 157.02 28.5999 160.44 28.5999C163.72 28.5999 164.85 26.1699 164.85 24.0999V23.1699H162.02V23.4999C162.02 24.8199 161.84 25.8999 160.44 25.8999C159.17 25.8999 158.55 25.2799 158.55 23.2199V21.4099H164.86V18.4399C164.86 15.6799 163.65 13.3999 160.37 13.3999C156.75 13.3999 155.59 15.5799 155.59 18.5999V21.5699H155.58ZM158.42 18.4899C158.42 17.4499 158.54 15.7299 160.28 15.7299C161.82 15.7299 162.02 17.3199 162.02 18.4699V18.9599H158.42V18.4899Z" fill="black"></path><path d="M19.11 35.05C28.07 35.05 35.34 27.78 35.34 18.82C35.34 9.85002 28.07 2.59002 19.11 2.59002C10.14 2.59002 2.87 9.86002 2.87 18.82C2.87 27.78 10.14 35.05 19.11 35.05ZM1.56 18.77C1.56 9.10002 9.39 1.27002 19.06 1.27002C28.73 1.27002 36.56 9.10002 36.56 18.77C36.56 28.44 28.73 36.27 19.06 36.27C9.39 36.28 1.56 28.44 1.56 18.77Z" fill="black"></path><path d="M24.34 28.7C25.44 28.7 26.38 27.76 26.38 26.66C26.38 25.57 25.44 24.7 24.34 24.7H13.65C12.52 24.7 11.58 25.57 11.58 26.66C11.58 27.76 12.52 28.7 13.65 28.7H24.34Z" fill="black"></path><path d="M27.49 9.99997C26.04 9.99997 24.86 11.18 24.86 12.63C24.86 13.47 25.25 14.22 25.87 14.7L23.25 20.2L20.61 14.75C21.29 14.27 21.73 13.49 21.73 12.6C21.73 11.15 20.55 9.96997 19.1 9.96997C17.65 9.96997 16.47 11.14 16.47 12.6C16.47 13.49 16.91 14.27 17.58 14.75L14.95 20.2L12.29 14.68C12.9 14.2 13.29 13.45 13.29 12.62C13.29 11.17 12.11 9.98997 10.66 9.98997C9.21 9.98997 8.03 11.17 8.03 12.62C8.03 14.08 9.21 15.25 10.66 15.25L10.86 15.24L14.9 23.4L19.07 15.25H19.08L23.19 23.4L27.26 15.26L27.49 15.27C28.94 15.27 30.12 14.09 30.12 12.64C30.13 11.18 28.95 9.99997 27.49 9.99997Z" fill="black"></path></svg> 