<?xml version="1.0" encoding="UTF-8"?> <svg xmlns="http://www.w3.org/2000/svg" width="348" height="112" viewBox="0 0 348 112" fill="none"><path d="M79.3024 14.509L62.7165 75.0575H53.0234L41.284 31.0418L29.4369 75.0575H19.7439L3.15796 14.509H12.7433L24.5904 58.4174L36.5452 14.509H46.0229L57.9776 58.4174L69.8247 14.509H79.3024Z" fill="black"></path><path d="M83.7174 14.7239L93.3028 13.9724V28.7874L93.0874 34.3699H93.4105C97.9339 32.6522 101.488 31.9008 105.796 31.9008C113.551 31.9008 118.72 35.3361 118.72 48.6482V75.0577H109.135V49.3997C109.135 41.4554 105.258 40.3818 100.734 40.3818C97.9339 40.3818 95.5645 41.026 93.1951 41.6701V75.0577H83.6097V14.7239H83.7174Z" fill="black"></path><path d="M131.968 15.2607C136.922 15.2607 137.676 18.1593 137.676 21.38C137.676 24.6007 136.599 27.4993 131.968 27.4993C127.229 27.4993 126.367 24.6007 126.367 21.38C126.26 18.1593 127.121 15.2607 131.968 15.2607ZM127.121 32.4376H136.707V74.9504H127.121V32.4376Z" fill="black"></path><path d="M144.784 32.4373H151.354L152.646 35.8727H153.292C155.769 33.7256 159.862 31.7932 165.032 31.7932C165.678 31.7932 166.324 31.7932 167.078 31.9006V41.2405C165.355 41.0258 163.524 40.7037 161.693 40.7037C159.108 40.7037 156.954 41.3478 154.477 42.4214V74.9501H144.892V32.4373H144.784Z" fill="black"></path><path d="M171.063 75.0577V14.7239L180.649 13.9724V75.0577H171.063Z" fill="black"></path><path d="M248.608 31.9004C262.178 31.9004 267.348 39.8447 267.348 54.0156C267.348 67.3277 262.501 75.9162 248.392 75.9162C234.284 75.9162 229.329 67.2204 229.329 54.0156C229.437 39.8447 235.037 31.9004 248.608 31.9004ZM257.655 54.0156C257.655 45.964 256.362 39.4153 248.715 39.4153C240.961 39.4153 239.022 45.7493 239.022 54.0156C239.022 61.7452 240.638 68.4013 248.285 68.4013C255.931 68.4013 257.655 62.0673 257.655 54.0156Z" fill="black"></path><path d="M291.472 31.9004C305.042 31.9004 310.211 39.8447 310.211 54.0156C310.211 67.3277 305.365 75.9162 291.256 75.9162C277.147 75.9162 272.193 67.2204 272.193 54.0156C272.301 39.8447 277.901 31.9004 291.472 31.9004ZM300.518 54.0156C300.518 45.964 299.226 39.4153 291.579 39.4153C283.825 39.4153 281.886 45.7493 281.886 54.0156C281.886 61.7452 283.502 68.4013 291.148 68.4013C298.795 68.4013 300.518 62.0673 300.518 54.0156Z" fill="black"></path><path d="M316.459 75.0577V14.7239L326.044 13.9724V75.0577H316.459Z" fill="black"></path><path d="M188.402 32.4373H195.618L196.372 35.5507C199.28 33.9403 204.557 31.7932 209.296 31.7932C218.02 31.7932 224.374 38.1272 224.374 53.2643C224.374 68.1867 217.696 75.5942 206.496 75.5942C202.403 75.5942 197.88 74.7354 197.88 74.7354V94.2741L188.294 95.3476V32.4373H188.402ZM197.987 67.1132C200.68 67.2205 202.188 67.3279 204.988 67.3279C210.911 67.3279 214.789 64.2146 214.789 51.7613C214.789 43.2802 211.342 41.0258 205.096 41.0258C202.618 41.0258 200.357 41.4552 198.095 42.2067V67.1132H197.987Z" fill="black"></path><path d="M235.792 6.34998C228.683 -1.91639 205.958 5.38378 180.649 22.7754V27.177C202.943 11.3957 222.652 4.09552 228.252 10.5369C235.253 18.6959 217.805 45.2127 189.157 69.7971C160.509 94.3815 131.645 107.801 124.644 99.6419C120.983 95.455 123.998 86.2225 131.645 74.9501H127.121C117.536 89.1211 113.982 101.038 118.936 106.727C127.875 117.034 161.263 102.97 193.573 75.1649C225.775 47.4672 244.731 16.6561 235.792 6.34998Z" fill="#EEB111"></path><path d="M339.621 21.1651C336.174 21.1651 333.805 18.5885 333.805 15.2605C333.805 11.7178 336.498 9.35596 339.621 9.35596C342.744 9.35596 345.437 11.7178 345.437 15.2605C345.437 18.8032 342.744 21.1651 339.621 21.1651ZM339.621 10.4295C337.036 10.4295 335.097 12.4693 335.097 15.3679C335.097 18.0517 336.821 20.3062 339.621 20.3062C342.206 20.3062 344.144 18.2665 344.144 15.3679C344.144 12.4693 342.206 10.4295 339.621 10.4295ZM338.436 18.6959H337.359V12.1472H339.836C341.452 12.1472 342.206 12.684 342.206 14.0796C342.206 15.2605 341.452 15.7973 340.482 15.9046L342.313 18.8032H341.129L339.405 16.012H338.436V18.6959ZM339.621 14.9384C340.483 14.9384 341.129 14.8311 341.129 13.8649C341.129 13.1134 340.375 13.006 339.729 13.006H338.436V14.9384H339.621Z" fill="black"></path></svg> 