<?xml version="1.0" encoding="UTF-8"?> <svg xmlns="http://www.w3.org/2000/svg" width="128" height="22" viewBox="0 0 128 22" fill="none"><path d="M12.6 21.4H11.3L8.6 12L6.6 21.4H4.8L1.3 0.300049H4.3L6.3 13.5L7.9 0.300049H9.5L11.2 13.5L12.9 0.300049H15.9L12.6 21.4Z" fill="black"></path><path d="M16.8 21.3999V3.8999H19.7V21.3999H16.8Z" fill="black"></path><path d="M28.2 21.3999L24.2 12.4999V21.2999H21.4V3.9999H22.8L26.8 12.5999V3.8999H29.6V21.3999H28.2Z" fill="black"></path><path d="M31.2 21.3999V3.8999H37.8V6.9999H34.1V10.9999H37.3V13.9999H34.1V18.4999H37.8V21.5999H31.2V21.3999Z" fill="black"></path><path d="M41.3 21.4V0.300049H47.9V3.40005H44.2V9.10005H47.4V12.1H44.2V18.4H47.9V21.5H41.3V21.4Z" fill="black"></path><path d="M56.4 21.3999L52.4 12.4999V21.2999H49.6V3.9999H51L55 12.5999V3.8999H57.8V21.3999H56.4Z" fill="black"></path><path d="M64.5 6.9999V21.3999H61.6V6.9999H59.3V3.8999H66.8V6.9999H64.5Z" fill="black"></path><path d="M73.6 21.3999V14.0999H71.2V21.3999H68.3V3.8999H71.2V10.9999H73.7V3.8999H76.6V21.3999H73.6Z" fill="black"></path><path d="M82.5 21.6999C80.2 21.6999 78.5 20.1999 78.5 16.7999V3.8999H81.4V16.9999C81.4 18.0999 81.8 18.6999 82.6 18.6999C83.4 18.6999 83.7 18.0999 83.7 16.9999V3.8999H86.6V16.6999C86.6 20.2999 84.8 21.6999 82.5 21.6999Z" fill="black"></path><path d="M91.8 21.7C90.6 21.7 89.3 21.2 88.1 20.2L89 17.2C89.8 18 90.7 18.6 91.6 18.6C92.4 18.6 92.8 18 92.8 17.1C92.8 16.2 92.4 15.5 90.8 13.6C89.1 11.6 88.3 10.2 88.3 8.39995C88.3 5.99995 89.8 3.69995 92.2 3.69995C93.5 3.69995 94.3 3.99995 95.3 4.79995L94.3 7.79995C93.5 7.09995 93 6.79995 92.3 6.79995C91.6 6.79995 91.1 7.29995 91.1 8.19995C91.1 8.99995 91.5 9.59995 92.9 11.3C94.8 13.6 95.5 15 95.5 16.9C95.6 19.5 94.3 21.7 91.8 21.7Z" fill="black"></path><path d="M97 21.3999V3.8999H99.9V21.3999H97Z" fill="black"></path><path d="M107.6 21.3999L107 18.4999H104.4L103.8 21.3999H101L104.6 3.8999H106.8L110.3 21.3999H107.6ZM105.7 10.4999L104.9 15.5999H106.5L105.7 10.4999Z" fill="black"></path><path d="M114.7 21.7C113.5 21.7 112.2 21.2 111 20.2L111.9 17.2C112.7 18 113.6 18.6 114.5 18.6C115.3 18.6 115.7 18 115.7 17.1C115.7 16.2 115.3 15.5 113.7 13.6C112 11.6 111.2 10.2 111.2 8.39995C111.2 5.99995 112.7 3.69995 115.1 3.69995C116.4 3.69995 117.2 3.99995 118.2 4.79995L117.3 7.79995C116.5 7.09995 116 6.79995 115.3 6.79995C114.6 6.79995 114.1 7.29995 114.1 8.19995C114.1 8.99995 114.5 9.59995 115.9 11.3C117.8 13.6 118.5 15 118.5 16.9C118.6 19.5 117.3 21.7 114.7 21.7Z" fill="black"></path><path d="M124.4 6.9999V21.3999H121.5V6.9999H119.2V3.8999H126.7V6.9999H124.4Z" fill="black"></path><path d="M124.9 20.8001C124.9 20.4001 125.1 20.1001 125.6 20.1001C126.1 20.1001 126.3 20.4001 126.3 20.8001C126.3 21.2001 126.1 21.5001 125.6 21.5001C125.2 21.6001 124.9 21.3001 124.9 20.8001ZM126.3 20.8001C126.3 20.4001 126.1 20.2001 125.7 20.2001C125.3 20.2001 125.1 20.5001 125.1 20.9001C125.1 21.3001 125.3 21.6001 125.7 21.6001C126.1 21.5001 126.3 21.2001 126.3 20.8001ZM125.7 20.9001H125.5V21.2001H125.4V20.3001H125.8C126.1 20.3001 126.1 20.4001 126.1 20.6001C126.1 20.7001 126.1 20.8001 125.9 20.9001L126.1 21.3001H125.9L125.7 20.9001ZM125.7 20.8001C125.8 20.8001 125.9 20.8001 125.9 20.7001C125.9 20.6001 125.9 20.6001 125.7 20.6001H125.4V20.9001H125.7V20.8001Z" fill="black"></path></svg> 