<?xml version="1.0" encoding="UTF-8"?> <svg xmlns="http://www.w3.org/2000/svg" width="122" height="61" viewBox="0 0 122 61" fill="none"><g clip-path="url(#clip0_1_570)"><path d="M1.15 51.9051C1.08203 51.576 0.923789 51.2723 0.693 51.0281C0.539205 50.9532 0.370058 50.9152 0.199 50.9171C0.0740004 50.9171 -0.000999451 50.9051 -0.000999451 50.8061C-0.000999451 50.7071 0.0989999 50.6951 0.271 50.6951C0.915 50.6951 1.595 50.7331 1.706 50.7331C1.817 50.7331 2.361 50.6951 3.079 50.6951C3.251 50.6951 3.338 50.7331 3.338 50.8061C3.338 50.9061 3.238 50.9171 3.115 50.9171C3.00955 50.9082 2.90352 50.925 2.806 50.9661C2.695 51.0151 2.669 51.1021 2.669 51.2381C2.73244 51.6229 2.82368 52.0025 2.942 52.3741C3.151 53.1911 4.301 56.9351 4.525 57.6291H4.561L6.961 51.1871C7.098 50.8411 7.171 50.7421 7.271 50.7421C7.407 50.7421 7.471 50.9281 7.629 51.3231L10.201 57.5421H10.238C10.46 56.7121 11.449 53.4501 11.883 52.0041C11.9567 51.7719 11.9978 51.5306 12.005 51.2871C12.005 51.0871 11.894 50.9161 11.412 50.9161C11.289 50.9161 11.203 50.8791 11.203 50.8051C11.203 50.7311 11.303 50.6941 11.488 50.6941C12.143 50.6941 12.662 50.7321 12.773 50.7321C12.86 50.7321 13.391 50.6941 13.8 50.6941C13.935 50.6941 14.022 50.7201 14.022 50.7941C14.022 50.8681 13.96 50.9171 13.849 50.9171C13.702 50.9147 13.5555 50.9357 13.415 50.9791C13.115 51.0901 12.982 51.5851 12.723 52.2901C12.154 53.8481 10.855 57.7791 10.25 59.6331C10.114 60.0661 10.05 60.2151 9.892 60.2151C9.769 60.2151 9.692 60.0671 9.509 59.6091L6.934 53.4131H6.909C6.674 54.0431 5.03 58.4201 4.499 59.5571C4.264 60.0641 4.199 60.2121 4.054 60.2121C3.93 60.2121 3.869 60.0761 3.77 59.7541L1.15 51.9051ZM15.664 54.2781C15.664 52.3991 15.664 52.0531 15.639 51.6581C15.615 51.2381 15.492 51.0281 15.219 50.9661C15.0733 50.9314 14.9238 50.9149 14.774 50.9171C14.651 50.9171 14.574 50.8931 14.574 50.7941C14.574 50.7201 14.674 50.6941 14.874 50.6941C15.344 50.6941 16.123 50.7321 16.482 50.7321C16.791 50.7321 17.52 50.6941 17.99 50.6941C18.15 50.6941 18.251 50.7201 18.251 50.7941C18.251 50.8941 18.176 50.9171 18.051 50.9171C17.9268 50.919 17.8031 50.9314 17.681 50.9541C17.347 51.0161 17.248 51.2261 17.223 51.6541C17.199 52.0541 17.199 52.3961 17.199 54.2741V56.4491C17.199 57.6491 17.199 58.6251 17.248 59.1571C17.286 59.4911 17.372 59.7131 17.748 59.7631C17.9568 59.7919 18.1672 59.8083 18.378 59.8121C18.515 59.8121 18.578 59.8491 18.578 59.9121C18.578 59.9991 18.478 60.0361 18.343 60.0361C17.528 60.0361 16.748 59.9991 16.414 59.9991C16.131 59.9991 15.351 60.0361 14.858 60.0361C14.696 60.0361 14.611 59.9991 14.611 59.9121C14.611 59.8501 14.66 59.8121 14.811 59.8121C14.9603 59.8121 15.1092 59.7956 15.255 59.7631C15.502 59.7141 15.577 59.5031 15.614 59.1451C15.676 58.6261 15.676 57.6451 15.676 56.4501V54.2781H15.664ZM21.944 58.3581C21.97 59.3221 22.13 59.6431 22.377 59.7301C22.5853 59.7949 22.803 59.8243 23.021 59.8171C23.158 59.8171 23.23 59.8421 23.23 59.9171C23.23 60.0171 23.119 60.0411 22.946 60.0411C22.146 60.0411 21.646 60.0041 21.413 60.0041C21.302 60.0041 20.72 60.0411 20.077 60.0411C19.916 60.0411 19.805 60.0281 19.805 59.9171C19.805 59.8431 19.878 59.8171 20.005 59.8171C20.1922 59.8206 20.3791 59.7998 20.561 59.7551C20.883 59.6551 20.932 59.2981 20.944 58.2211L21.055 50.9031C21.055 50.6561 21.092 50.4821 21.215 50.4821C21.338 50.4821 21.461 50.6431 21.673 50.8661C21.821 51.0271 23.7 53.0411 25.505 54.8341C26.345 55.6751 28.016 57.4551 28.225 57.6541H28.284L28.162 52.1021C28.149 51.3481 28.038 51.1131 27.742 50.9901C27.528 50.9306 27.3057 50.907 27.084 50.9201C26.936 50.9201 26.884 50.8831 26.884 50.8091C26.884 50.7091 27.021 50.6981 27.207 50.6981C27.85 50.6981 28.443 50.7361 28.702 50.7361C28.839 50.7361 29.309 50.6981 29.914 50.6981C30.075 50.6981 30.198 50.7111 30.198 50.8091C30.198 50.8841 30.124 50.9201 29.976 50.9201C29.8512 50.9153 29.7264 50.9277 29.605 50.9571C29.259 51.0571 29.16 51.3151 29.147 52.0081L29.011 59.8081C29.011 60.0801 28.962 60.1911 28.85 60.1911C28.714 60.1911 28.566 60.0551 28.429 59.9191C27.651 59.1771 26.068 57.5581 24.783 56.2851C23.435 54.9501 22.063 53.4041 21.84 53.1701H21.803L21.944 58.3581ZM32.959 54.2781C32.959 52.3991 32.959 52.0531 32.933 51.6581C32.91 51.2381 32.811 51.0401 32.403 50.9581C32.2435 50.9308 32.0818 50.9184 31.92 50.9211C31.783 50.9211 31.71 50.8971 31.71 50.8101C31.71 50.7231 31.797 50.6991 31.982 50.6991C32.316 50.6991 32.675 50.7121 32.982 50.7121C33.289 50.7121 33.588 50.7371 33.761 50.7371C34.161 50.7371 36.617 50.7371 36.852 50.7241C37.0302 50.7083 37.2074 50.6833 37.383 50.6491C37.4482 50.6271 37.5151 50.6108 37.583 50.6001C37.646 50.6001 37.658 50.6491 37.658 50.7111C37.6113 50.9759 37.5779 51.2429 37.558 51.5111C37.546 51.6351 37.521 52.1791 37.497 52.3271C37.484 52.3891 37.459 52.4641 37.373 52.4641C37.287 52.4641 37.262 52.4021 37.262 52.2911C37.2626 52.1396 37.2373 51.989 37.187 51.8461C37.102 51.6231 36.978 51.4751 36.359 51.4011C36.149 51.3761 34.851 51.3511 34.603 51.3511C34.541 51.3511 34.516 51.3891 34.516 51.4751V54.6021C34.516 54.6881 34.529 54.7381 34.603 54.7381C34.875 54.7381 36.296 54.7381 36.581 54.7141C36.7949 54.7279 37.0063 54.6616 37.174 54.5281C37.261 54.4281 37.311 54.3681 37.374 54.3681C37.437 54.3681 37.461 54.3921 37.461 54.4681C37.461 54.5441 37.4 54.7401 37.361 55.3681C37.336 55.6161 37.312 56.1101 37.312 56.1971C37.312 56.2841 37.312 56.4321 37.201 56.4321C37.1855 56.4349 37.1695 56.434 37.1543 56.4295C37.1392 56.4249 37.1253 56.4169 37.1139 56.406C37.1025 56.395 37.0938 56.3815 37.0886 56.3666C37.0834 56.3517 37.0818 56.3357 37.084 56.3201C37.0778 56.1704 37.0611 56.0214 37.034 55.8741C36.973 55.6271 36.799 55.4411 36.341 55.3921C36.107 55.3681 34.883 55.3551 34.586 55.3551C34.524 55.3551 34.512 55.4041 34.512 55.4781V56.4541C34.512 56.8741 34.499 58.0121 34.512 58.3701C34.536 59.2221 34.735 59.4081 35.995 59.4081C36.3884 59.4322 36.7829 59.3823 37.158 59.2611C37.479 59.1121 37.627 58.8531 37.714 58.3451C37.739 58.2091 37.763 58.1601 37.85 58.1601C37.937 58.1601 37.95 58.2601 37.95 58.3831C37.9291 58.844 37.8756 59.3028 37.79 59.7561C37.703 60.0781 37.59 60.0781 37.121 60.0781C36.195 60.0781 35.515 60.0531 34.983 60.0411C34.451 60.0291 34.068 60.0041 33.698 60.0041C33.562 60.0041 33.289 60.0161 32.998 60.0161C32.707 60.0161 32.391 60.0411 32.144 60.0411C31.983 60.0411 31.897 60.0041 31.897 59.9171C31.897 59.8551 31.946 59.8171 32.097 59.8171C32.2464 59.8171 32.3953 59.8007 32.541 59.7681C32.788 59.7191 32.852 59.4471 32.901 59.0881C32.963 58.5681 32.963 57.5931 32.963 56.4551V54.2781H32.959ZM51.984 59.2111C51.984 59.5451 51.972 59.5691 51.823 59.6561C50.8826 60.057 49.8657 60.2468 48.844 60.2121C45.815 60.2121 43.132 58.7781 43.132 55.3661C43.1082 54.5628 43.2941 53.7672 43.6715 53.0577C44.0489 52.3483 44.6046 51.7494 45.284 51.3201C46.2913 50.7365 47.4465 50.4586 48.609 50.5201C49.3423 50.5326 50.0736 50.5995 50.797 50.7201C51.1193 50.7852 51.4452 50.8307 51.773 50.8561C51.921 50.8691 51.947 50.9181 51.947 51.0041C51.8766 51.6777 51.8475 52.3549 51.86 53.0321C51.86 53.2321 51.822 53.2911 51.723 53.2911C51.624 53.2911 51.612 53.2291 51.599 53.1311C51.5759 52.7519 51.4282 52.3909 51.179 52.1041C50.4167 51.4428 49.4303 51.0979 48.422 51.1401C47.5391 51.0828 46.6664 51.3563 45.974 51.9071C45.5664 52.2919 45.2521 52.7647 45.055 53.2895C44.8579 53.8143 44.7834 54.3771 44.837 54.9351C44.837 57.5941 46.531 59.5831 49.137 59.5831C49.4928 59.6065 49.8498 59.5603 50.188 59.4471C50.2702 59.4053 50.3372 59.3386 50.3794 59.2566C50.4215 59.1745 50.4368 59.0813 50.423 58.9901V57.8281C50.423 57.2091 50.423 56.7401 50.41 56.3691C50.398 55.9491 50.287 55.7511 49.88 55.6691C49.7206 55.6413 49.5588 55.6289 49.397 55.6321C49.286 55.6321 49.211 55.6071 49.211 55.5321C49.211 55.4321 49.298 55.4081 49.471 55.4081C50.114 55.4081 50.892 55.4451 51.263 55.4451C51.634 55.4451 52.302 55.4081 52.71 55.4081C52.87 55.4081 52.956 55.4331 52.956 55.5321C52.956 55.6051 52.882 55.6321 52.796 55.6321C52.6838 55.6349 52.5721 55.6473 52.462 55.6691C52.128 55.7311 52.005 55.9411 51.991 56.3691C51.984 56.7401 51.984 57.2341 51.984 57.8521V59.2111ZM54.902 54.2791C54.902 52.4001 54.902 52.0541 54.877 51.6591C54.853 51.2391 54.754 51.0411 54.346 50.9591C54.1869 50.9317 54.0255 50.9193 53.864 50.9221C53.727 50.9221 53.654 50.8981 53.654 50.8111C53.654 50.7241 53.74 50.7001 53.926 50.7001C54.581 50.7001 55.36 50.7381 55.731 50.7381C56.031 50.7381 56.806 50.7001 57.251 50.7001C57.436 50.7001 57.523 50.7261 57.523 50.8111C57.523 50.8961 57.449 50.9221 57.323 50.9221C57.2024 50.9234 57.0823 50.9357 56.964 50.9591C56.63 51.0211 56.531 51.2311 56.506 51.6591C56.482 52.0591 56.482 52.4011 56.482 54.2791V56.0101C56.482 57.8021 56.841 58.5571 57.446 59.0511C57.8822 59.403 58.4322 59.583 58.992 59.5571C59.6242 59.5652 60.2345 59.3255 60.692 58.8891C61.372 58.2091 61.41 57.0971 61.41 55.8231V54.2771C61.41 52.3981 61.41 52.0521 61.384 51.6571C61.361 51.2371 61.262 51.0391 60.854 50.9571C60.7068 50.9311 60.5575 50.9187 60.408 50.9201C60.274 50.9201 60.198 50.8961 60.198 50.8091C60.198 50.7221 60.286 50.6981 60.459 50.6981C61.09 50.6981 61.868 50.7361 61.882 50.7361C62.031 50.7361 62.808 50.6981 63.291 50.6981C63.464 50.6981 63.552 50.7241 63.552 50.8091C63.552 50.8941 63.475 50.9201 63.329 50.9201C63.2081 50.9215 63.0876 50.9339 62.969 50.9571C62.635 51.0191 62.537 51.2291 62.513 51.6571C62.488 52.0571 62.488 52.3991 62.488 54.2771V55.6001C62.488 56.9731 62.351 58.4321 61.315 59.3221C60.6016 59.935 59.6816 60.2532 58.742 60.2121C57.753 60.2796 56.7744 59.9754 55.998 59.3591C55.5848 58.9275 55.272 58.41 55.0818 57.8435C54.8917 57.277 54.8289 56.6756 54.898 56.0821V54.2821L54.902 54.2791ZM66.302 56.8141C66.24 56.8141 66.216 56.8381 66.191 56.9141L65.523 58.6821C65.4213 58.9218 65.3592 59.1765 65.339 59.4361C65.339 59.6581 65.448 59.8191 65.833 59.8191H66.018C66.167 59.8191 66.204 59.8441 66.204 59.9191C66.204 60.0191 66.129 60.0431 65.994 60.0431C65.594 60.0431 65.066 60.0061 64.684 60.0061C64.548 60.0061 63.867 60.0431 63.224 60.0431C63.065 60.0431 62.99 60.0181 62.99 59.9191C62.99 59.8451 63.039 59.8191 63.138 59.8191C63.266 59.8179 63.3939 59.8096 63.521 59.7941C64.092 59.7201 64.321 59.3001 64.572 58.6811L67.672 50.9171C67.821 50.5581 67.894 50.4231 68.019 50.4231C68.128 50.4231 68.204 50.5341 68.327 50.8231C68.627 51.5031 70.603 56.5471 71.395 58.4231C71.863 59.5361 72.221 59.7091 72.481 59.7701C72.653 59.8034 72.8278 59.8198 73.003 59.8191C73.103 59.8191 73.162 59.8321 73.162 59.9191C73.162 60.0061 73.049 60.0431 72.592 60.0431C72.135 60.0431 71.245 60.0431 70.255 60.0181C70.033 60.0061 69.885 60.0061 69.885 59.9181C69.885 59.8301 69.935 59.8181 70.057 59.8071C70.0847 59.7979 70.1101 59.7827 70.1314 59.7627C70.1526 59.7426 70.1692 59.7181 70.18 59.691C70.1908 59.6638 70.1955 59.6346 70.1937 59.6054C70.192 59.5762 70.1839 59.5478 70.17 59.5221L69.18 56.9021C69.1725 56.8756 69.156 56.8526 69.1334 56.8369C69.1108 56.8212 69.0834 56.8139 69.056 56.8161H66.3L66.302 56.8141ZM68.824 56.1961C68.888 56.1961 68.899 56.1581 68.888 56.1221L67.773 53.0681C67.763 53.0181 67.75 52.9571 67.714 52.9571C67.678 52.9571 67.652 53.0191 67.639 53.0681L66.5 56.1081C66.489 56.1571 66.5 56.1951 66.551 56.1951L68.824 56.1961ZM74.462 54.2801C74.462 52.4011 74.462 52.0551 74.438 51.6601C74.414 51.2401 74.313 51.0421 73.905 50.9601C73.7458 50.9326 73.5845 50.9202 73.423 50.9231C73.29 50.9231 73.214 50.8991 73.214 50.8121C73.214 50.7251 73.301 50.7011 73.487 50.7011C74.141 50.7011 74.919 50.7391 75.18 50.7391C75.601 50.7391 76.542 50.7011 76.923 50.7011C77.7174 50.6453 78.5101 50.8311 79.197 51.2341C79.4576 51.4329 79.6691 51.689 79.8151 51.9826C79.9611 52.2761 80.0377 52.5993 80.039 52.9271C80.0106 53.4862 79.8473 54.0302 79.5632 54.5125C79.279 54.9949 78.8823 55.4013 78.407 55.6971C79.507 57.0811 80.36 58.1821 81.089 58.9481C81.4419 59.3758 81.9289 59.6718 82.471 59.7881C82.5856 59.811 82.7021 59.8233 82.819 59.8251C82.919 59.8251 82.968 59.8621 82.968 59.9251C82.968 60.0251 82.883 60.0491 82.733 60.0491H81.556C81.1022 60.0915 80.6454 60.0103 80.234 59.8141C79.5485 59.3331 78.9715 58.7138 78.54 57.9961C78.046 57.3161 77.477 56.4751 77.316 56.2901C77.2886 56.2588 77.254 56.2346 77.2151 56.2196C77.1763 56.2046 77.1344 56.1993 77.093 56.2041L76.019 56.1791C75.956 56.1791 75.919 56.2041 75.919 56.2791V56.4511C75.919 57.6021 75.919 58.5781 75.98 59.0971C76.018 59.4561 76.091 59.7271 76.463 59.7771C76.6637 59.804 76.8656 59.8204 77.068 59.8261C77.168 59.8261 77.217 59.8631 77.217 59.9261C77.217 60.0131 77.131 60.0501 76.971 60.0501C76.252 60.0501 75.338 60.0131 75.153 60.0131C74.917 60.0131 74.139 60.0501 73.644 60.0501C73.485 60.0501 73.398 60.0131 73.398 59.9261C73.398 59.8641 73.447 59.8261 73.598 59.8261C73.748 59.826 73.8976 59.8096 74.044 59.7771C74.29 59.7281 74.352 59.4561 74.403 59.0971C74.463 58.5771 74.463 57.6021 74.463 56.4641L74.462 54.2801ZM75.921 55.2571C75.921 55.3921 75.946 55.4411 76.032 55.4791C76.338 55.5656 76.6551 55.6067 76.973 55.6011C77.2814 55.6446 77.5948 55.5696 77.85 55.3911C78.1102 55.1623 78.3122 54.8747 78.4391 54.5523C78.566 54.2299 78.6143 53.8819 78.58 53.5371C78.6205 53.2612 78.6021 52.9799 78.5262 52.7117C78.4502 52.4434 78.3184 52.1942 78.1394 51.9805C77.9603 51.7668 77.7381 51.5934 77.4872 51.4716C77.2364 51.3499 76.9627 51.2826 76.684 51.2741C76.4645 51.2639 76.2446 51.2804 76.029 51.3231C75.944 51.3471 75.918 51.3981 75.918 51.4971L75.921 55.2571Z" fill="#212529"></path><path d="M83.793 54.2781C83.793 52.3991 83.793 52.0531 83.77 51.6581C83.746 51.2381 83.646 51.0401 83.239 50.9581C83.0798 50.9308 82.9185 50.9184 82.757 50.9211C82.62 50.9211 82.546 50.8971 82.546 50.8101C82.546 50.7231 82.633 50.6991 82.817 50.6991C83.472 50.6991 84.251 50.7371 84.598 50.7371C84.982 50.7371 85.759 50.6991 86.498 50.6991C88.045 50.6991 90.108 50.6991 91.457 52.1081C92.2547 52.9564 92.6859 54.085 92.657 55.2491C92.6748 56.5309 92.191 57.7689 91.309 58.6991C90.7513 59.2066 90.0975 59.5971 89.3862 59.8475C88.6749 60.098 87.9207 60.2032 87.168 60.1571C86.723 60.1571 86.216 60.1201 85.747 60.0831C85.278 60.0461 84.847 60.0091 84.535 60.0091C84.399 60.0091 84.127 60.0211 83.835 60.0211C83.543 60.0211 83.227 60.0461 82.98 60.0461C82.82 60.0461 82.734 60.0091 82.734 59.9221C82.734 59.8601 82.783 59.8221 82.934 59.8221C83.0837 59.822 83.2329 59.8056 83.379 59.7731C83.625 59.7241 83.687 59.4521 83.737 59.0931C83.798 58.5731 83.798 57.5981 83.798 56.4601V54.2781H83.793ZM85.339 55.6371C85.339 56.9481 85.352 57.9001 85.362 58.1371C85.3519 58.4557 85.3983 58.7736 85.499 59.0761C85.659 59.3111 86.142 59.5701 87.119 59.5701C88.1469 59.6536 89.167 59.3345 89.964 58.6801C90.348 58.2716 90.6394 57.7851 90.8184 57.2537C90.9973 56.7224 91.0596 56.1587 91.001 55.6011C91.0232 55.0324 90.9294 54.4652 90.7253 53.934C90.5213 53.4028 90.2112 52.9186 89.814 52.5111C88.8521 51.6536 87.591 51.2095 86.304 51.2751C86.0331 51.2701 85.7626 51.2993 85.499 51.3621C85.4494 51.3791 85.4074 51.4132 85.3805 51.4582C85.3536 51.5032 85.3435 51.5563 85.352 51.6081C85.339 52.0291 85.339 53.1081 85.339 54.0811V55.6371ZM95.239 54.2781C95.239 52.3991 95.239 52.0531 95.215 51.6581C95.192 51.2381 95.068 51.0281 94.795 50.9661C94.6496 50.9315 94.5005 50.915 94.351 50.9171C94.227 50.9171 94.151 50.8931 94.151 50.7941C94.151 50.7201 94.251 50.6941 94.451 50.6941C94.922 50.6941 95.7 50.7321 96.058 50.7321C96.366 50.7321 97.095 50.6941 97.566 50.6941C97.725 50.6941 97.827 50.7201 97.827 50.7941C97.827 50.8941 97.752 50.9171 97.627 50.9171C97.5022 50.919 97.3778 50.9314 97.255 50.9541C96.923 51.0161 96.823 51.2261 96.798 51.6541C96.772 52.0541 96.772 52.3961 96.772 54.2741V56.4491C96.772 57.6491 96.772 58.6251 96.823 59.1571C96.861 59.4911 96.947 59.7131 97.317 59.7631C97.5259 59.7918 97.7362 59.8082 97.947 59.8121C98.084 59.8121 98.147 59.8491 98.147 59.9121C98.147 59.9991 98.047 60.0361 97.913 60.0361C97.097 60.0361 96.319 59.9991 95.984 59.9991C95.701 59.9991 94.923 60.0361 94.428 60.0361C94.265 60.0361 94.179 59.9991 94.179 59.9121C94.179 59.8501 94.23 59.8121 94.379 59.8121C94.5293 59.8121 94.6792 59.7957 94.826 59.7631C95.072 59.7141 95.146 59.5031 95.184 59.1451C95.244 58.6261 95.244 57.6451 95.244 56.4501V54.2781H95.239Z" fill="#212529"></path><path d="M101.326 56.8131C101.265 56.8131 101.239 56.8371 101.215 56.9131L100.548 58.6811C100.445 58.9207 100.383 59.1753 100.362 59.4351C100.362 59.6571 100.474 59.8181 100.856 59.8181H101.044C101.191 59.8181 101.228 59.8431 101.228 59.9181C101.228 60.0181 101.153 60.0421 101.017 60.0421C100.623 60.0421 100.092 60.0051 99.708 60.0051C99.572 60.0051 98.891 60.0421 98.25 60.0421C98.087 60.0421 98.014 60.0171 98.014 59.9181C98.014 59.8441 98.064 59.8181 98.163 59.8181C98.291 59.8168 98.4189 59.8085 98.546 59.7931C99.116 59.7191 99.346 59.2991 99.597 58.6801L102.697 50.9161C102.845 50.5571 102.919 50.4221 103.043 50.4221C103.167 50.4221 103.227 50.5331 103.351 50.8221C103.651 51.5021 105.627 56.5461 106.418 58.4221C106.887 59.5351 107.245 59.7081 107.504 59.7691C107.675 59.8024 107.849 59.8188 108.024 59.8181C108.124 59.8181 108.184 59.8311 108.184 59.9181C108.184 60.0051 108.073 60.0421 107.615 60.0421C107.157 60.0421 106.268 60.0421 105.28 60.0171C105.057 60.0051 104.909 60.0051 104.909 59.9171C104.909 59.8291 104.958 59.8171 105.082 59.8061C105.109 59.7966 105.135 59.7812 105.155 59.761C105.176 59.7408 105.193 59.7163 105.203 59.6891C105.214 59.662 105.218 59.6329 105.216 59.6039C105.214 59.5749 105.206 59.5466 105.192 59.5211L104.203 56.9011C104.196 56.8747 104.179 56.8517 104.157 56.836C104.135 56.8204 104.107 56.813 104.08 56.8151H101.323L101.326 56.8131ZM103.848 56.1951C103.909 56.1951 103.922 56.1571 103.909 56.1211L102.797 53.0671C102.785 53.0171 102.771 52.9561 102.735 52.9561C102.699 52.9561 102.673 53.0181 102.66 53.0671L101.524 56.1071C101.512 56.1561 101.524 56.1941 101.573 56.1941L103.848 56.1951Z" fill="#212529"></path><path d="M110.178 58.357C110.202 59.321 110.364 59.642 110.61 59.729C110.818 59.7936 111.035 59.8231 111.253 59.816C111.389 59.816 111.464 59.841 111.464 59.916C111.464 60.016 111.352 60.04 111.178 60.04C110.378 60.04 109.878 60.003 109.647 60.003C109.536 60.003 108.953 60.04 108.311 60.04C108.151 60.04 108.039 60.027 108.039 59.916C108.039 59.842 108.113 59.816 108.239 59.816C108.426 59.8194 108.613 59.7986 108.795 59.754C109.118 59.654 109.165 59.297 109.18 58.22L109.289 50.902C109.289 50.655 109.327 50.481 109.449 50.481C109.571 50.481 109.699 50.642 109.907 50.865C110.056 51.026 111.934 53.04 113.739 54.833C114.58 55.674 116.249 57.454 116.458 57.653H116.52L116.397 52.101C116.384 51.347 116.274 51.112 115.977 50.989C115.764 50.928 115.543 50.9026 115.322 50.914C115.175 50.914 115.122 50.877 115.122 50.803C115.122 50.703 115.258 50.692 115.444 50.692C116.088 50.692 116.68 50.73 116.939 50.73C117.074 50.73 117.545 50.692 118.149 50.692C118.312 50.692 118.435 50.705 118.435 50.803C118.435 50.878 118.361 50.914 118.211 50.914C118.087 50.909 117.962 50.9215 117.841 50.951C117.494 51.051 117.395 51.309 117.383 52.002L117.246 59.802C117.246 60.073 117.198 60.185 117.086 60.185C116.951 60.185 116.803 60.049 116.666 59.913C115.888 59.171 114.305 57.552 113.02 56.279C111.671 54.944 110.299 53.398 110.076 53.164H110.04L110.178 58.357Z" fill="#212529"></path><path d="M101.645 27.015C100.123 27.015 97.674 27.153 96.245 27.153C94.861 27.153 91.952 27.015 89.551 27.015C88.902 27.015 88.58 27.106 88.58 27.478C88.58 27.755 88.857 27.847 89.274 27.847C89.8771 27.8363 90.4798 27.8828 91.074 27.986C92.595 28.309 93.011 29.049 93.059 30.619C93.104 32.004 93.104 33.759 93.104 36.068V40.41C93.1563 40.7508 93.0997 41.0994 92.9422 41.4061C92.7847 41.7128 92.5344 41.9619 92.227 42.118C90.9637 42.5422 89.6297 42.7151 88.3 42.627C78.556 42.627 72.229 35.191 72.229 25.262C72.229 19.582 73.891 16.118 76.478 13.947C79.0639 11.8902 82.3228 10.8696 85.62 11.084C90.841 11.084 94.535 13.208 95.92 14.684C96.8483 15.7556 97.3998 17.102 97.49 18.517C97.535 18.887 97.628 19.117 97.949 19.117C98.32 19.117 98.459 18.886 98.459 18.147C98.4131 15.6181 98.5209 13.0888 98.782 10.573C98.782 10.248 98.691 10.064 98.136 10.018C96.9105 9.92244 95.692 9.75279 94.487 9.51C91.784 9.06236 89.0515 8.81535 86.312 8.771C82.434 8.771 78.323 9.094 73.889 11.771C71.354 13.3737 69.2801 15.6089 67.8714 18.2565C66.4626 20.9042 65.7677 23.8731 65.855 26.871C65.855 39.617 75.874 44.971 87.189 44.971C90.794 44.971 95.319 44.463 98.32 42.894C98.875 42.571 98.92 42.478 98.92 41.231V36.161C98.92 33.852 98.92 32.005 98.964 30.619C99.012 29.002 99.472 28.219 100.72 27.986C101.131 27.904 101.547 27.8575 101.966 27.847C102.291 27.847 102.566 27.755 102.566 27.478C102.566 27.106 102.243 27.015 101.642 27.015H101.645Z" fill="#A3BD0B"></path><path d="M65.162 9.41902C63.982 9.41902 62.527 9.50202 61.778 9.54002H59.286C59.3624 9.5863 59.4361 9.63671 59.507 9.69102C59.8821 9.98174 60.1626 10.3771 60.313 10.8272C60.4634 11.2773 60.477 11.7618 60.3521 12.2197C60.2272 12.6775 59.9694 13.088 59.6112 13.3993C59.2531 13.7106 58.8106 13.9088 58.3399 13.9687C57.8692 14.0287 57.3912 13.9477 56.9664 13.7361C56.5417 13.5245 56.1892 13.1917 55.9536 12.7798C55.7179 12.3679 55.6097 11.8953 55.6425 11.4219C55.6753 10.9485 55.8478 10.4955 56.138 10.12C56.3177 9.8881 56.5387 9.69145 56.79 9.54002H54.118C54.1948 9.58608 54.2689 9.6365 54.34 9.69102C54.7475 10.0047 55.0439 10.4406 55.1858 10.9349C55.3277 11.4292 55.3076 11.9559 55.1285 12.4379C54.9494 12.92 54.6206 13.332 54.1904 13.6137C53.7602 13.8955 53.2511 14.0321 52.7376 14.0035C52.2242 13.975 51.7333 13.7828 51.337 13.4552C50.9406 13.1275 50.6596 12.6816 50.535 12.1826C50.4104 11.6837 50.4488 11.158 50.6446 10.6825C50.8404 10.207 51.1832 9.8066 51.623 9.54002H48.951C49.026 9.58702 49.1 9.64003 49.172 9.69102C49.5791 10.0047 49.8751 10.4404 50.0167 10.9345C50.1583 11.4285 50.1381 11.9549 49.959 12.4366C49.7798 12.9183 49.4512 13.33 49.0213 13.6115C48.5913 13.893 48.0825 14.0295 47.5694 14.001C47.0562 13.9725 46.5657 13.7805 46.1695 13.4531C45.7734 13.1257 45.4924 12.6801 45.3678 12.1815C45.2431 11.6829 45.2813 11.1576 45.4768 10.6823C45.6722 10.2069 46.0147 9.80668 46.454 9.54002H43.784C43.859 9.58702 43.934 9.64003 44.006 9.69102C44.4137 10.0048 44.7103 10.4409 44.8522 10.9354C44.9942 11.4298 44.9741 11.9568 44.7949 12.4391C44.6158 12.9213 44.2869 13.3336 43.8565 13.6154C43.4261 13.8973 42.9168 14.0339 42.4031 14.0054C41.8894 13.9769 41.3984 13.7846 41.0019 13.4568C40.6053 13.129 40.3242 12.6829 40.1995 12.1838C40.0749 11.6846 40.1133 11.1587 40.3092 10.683C40.505 10.2072 40.848 9.80671 41.288 9.54002H38.043C38.119 9.58702 38.193 9.64003 38.266 9.69102C38.6737 10.0048 38.9703 10.4409 39.1122 10.9354C39.2542 11.4298 39.2341 11.9568 39.0549 12.4391C38.8758 12.9213 38.5469 13.3336 38.1165 13.6154C37.6861 13.8973 37.1768 14.0339 36.6631 14.0054C36.1494 13.9769 35.6584 13.7846 35.2619 13.4568C34.8653 13.129 34.5842 12.6829 34.4595 12.1838C34.3349 11.6846 34.3733 11.1587 34.5692 10.683C34.765 10.2072 35.108 9.80671 35.548 9.54002H32.877C32.952 9.58702 33.027 9.64003 33.098 9.69102C33.5055 10.0047 33.8019 10.4406 33.9438 10.9349C34.0857 11.4292 34.0656 11.9559 33.8865 12.4379C33.7074 12.92 33.3786 13.332 32.9484 13.6137C32.5182 13.8955 32.0091 14.0321 31.4956 14.0035C30.9822 13.975 30.4913 13.7828 30.095 13.4552C29.6986 13.1275 29.4176 12.6816 29.293 12.1826C29.1684 11.6837 29.2068 11.158 29.4026 10.6825C29.5984 10.207 29.9412 9.8066 30.381 9.54002H27.709C27.7854 9.58629 27.8591 9.6367 27.93 9.69102C28.3375 10.0047 28.6339 10.4406 28.7758 10.9349C28.9177 11.4292 28.8976 11.9559 28.7185 12.4379C28.5394 12.92 28.2106 13.332 27.7804 13.6137C27.3502 13.8955 26.8411 14.0321 26.3276 14.0035C25.8142 13.975 25.3233 13.7828 24.927 13.4552C24.5306 13.1275 24.2496 12.6816 24.125 12.1826C24.0004 11.6837 24.0388 11.158 24.2346 10.6825C24.4304 10.207 24.7732 9.8066 25.213 9.54002H22.542C22.617 9.58702 22.691 9.64003 22.763 9.69102C23.1381 9.98174 23.4186 10.3771 23.569 10.8272C23.7194 11.2773 23.733 11.7618 23.6081 12.2197C23.4832 12.6775 23.2254 13.088 22.8672 13.3993C22.5091 13.7106 22.0666 13.9088 21.5959 13.9687C21.1251 14.0287 20.6472 13.9477 20.2225 13.7361C19.7977 13.5245 19.4452 13.1917 19.2096 12.7798C18.9739 12.3679 18.8657 11.8953 18.8985 11.4219C18.9313 10.9485 19.1038 10.4955 19.394 10.12C19.5747 9.88904 19.7955 9.69255 20.046 9.54002H19.411C18.436 9.50202 16.497 9.41902 14.637 9.41902C13.989 9.41902 13.621 9.51102 13.621 9.83402C13.621 10.204 13.898 10.25 14.36 10.25C15 10.2427 15.6329 10.3852 16.208 10.666C16.853 11.128 17.362 12.236 17.917 13.945L27.707 43.267C28.077 44.467 28.307 44.976 28.769 44.976C29.324 44.976 29.555 44.422 30.432 42.529C32.419 38.28 38.56 21.929 39.439 19.576H39.53L49.134 42.717C49.827 44.426 50.104 44.98 50.566 44.98C51.166 44.98 51.397 44.426 51.906 42.81C54.169 35.883 59.019 21.197 61.14 15.378C62.113 12.746 62.621 10.898 63.728 10.483C64.2511 10.3179 64.7976 10.2392 65.346 10.25C65.761 10.25 65.992 10.112 65.992 9.78902C65.992 9.51102 65.671 9.41902 65.162 9.41902ZM27.462 15.246C27.7529 14.8711 28.1485 14.5908 28.5986 14.4406C29.0488 14.2904 29.5334 14.2771 29.9912 14.4022C30.4489 14.5274 30.8593 14.7855 31.1704 15.1438C31.4816 15.5021 31.6795 15.9447 31.7391 16.4155C31.7988 16.8863 31.7176 17.3642 31.5057 17.7888C31.2938 18.2135 30.9608 18.5658 30.5487 18.8012C30.1366 19.0366 29.664 19.1445 29.1906 19.1114C28.7172 19.0783 28.2643 18.9055 27.889 18.615C27.6395 18.422 27.4306 18.1818 27.274 17.9079C27.1175 17.6341 27.0164 17.3321 26.9767 17.0192C26.9369 16.7063 26.9593 16.3887 27.0424 16.0844C27.1255 15.7802 27.2687 15.4953 27.462 15.246ZM22.294 15.246C22.5847 14.8709 22.9801 14.5905 23.4302 14.4401C23.8803 14.2896 24.3648 14.276 24.8226 14.4009C25.2805 14.5258 25.691 14.7837 26.0023 15.1418C26.3136 15.5 26.5118 15.9424 26.5717 16.4131C26.6316 16.8839 26.5507 17.3618 26.3391 17.7866C26.1274 18.2113 25.7946 18.5638 25.3827 18.7995C24.9708 19.0351 24.4983 19.1434 24.0249 19.1105C23.5515 19.0777 23.0984 18.9053 22.723 18.615C22.4734 18.4222 22.2642 18.182 22.1075 17.9083C21.9508 17.6345 21.8495 17.3326 21.8096 17.0197C21.7697 16.7068 21.7918 16.3891 21.8748 16.0847C21.9577 15.7804 22.1008 15.4954 22.294 15.246ZM24.994 23.769C24.6191 23.4781 24.3388 23.0826 24.1886 22.6324C24.0384 22.1822 24.025 21.6976 24.1502 21.2399C24.2754 20.7821 24.5334 20.3717 24.8918 20.0606C25.2501 19.7495 25.6927 19.5516 26.1635 19.4919C26.6343 19.4322 27.1122 19.5135 27.5368 19.7254C27.9614 19.9372 28.3137 20.2703 28.5491 20.6823C28.7845 21.0944 28.8925 21.567 28.8594 22.0404C28.8262 22.5138 28.6535 22.9668 28.363 23.342C28.1699 23.5914 27.9296 23.8003 27.6558 23.9568C27.3819 24.1132 27.0799 24.2141 26.767 24.2538C26.4541 24.2935 26.1365 24.2711 25.8323 24.1879C25.528 24.1047 25.2432 23.9624 24.994 23.769ZM30.665 35.327H30.651L30.757 35.082L30.665 35.327ZM30.833 28.394C30.5423 28.7692 30.1468 29.0497 29.6967 29.2001C29.2466 29.3506 28.7619 29.3642 28.304 29.2392C27.8462 29.1142 27.4356 28.8563 27.1243 28.4981C26.813 28.1398 26.6149 27.6973 26.5551 27.2265C26.4953 26.7556 26.5764 26.2776 26.7882 25.8529C27 25.4282 27.333 25.0757 27.745 24.8402C28.1571 24.6047 28.6297 24.4967 29.1032 24.5297C29.5767 24.5628 30.0297 24.7355 30.405 25.026C30.6543 25.219 30.8632 25.4592 31.0196 25.733C31.1761 26.0067 31.2771 26.3086 31.3168 26.6213C31.3566 26.9341 31.3343 27.2517 31.2513 27.5558C31.1683 27.86 31.0261 28.1448 30.833 28.394ZM33.526 23.342C33.2354 23.7172 32.8401 23.9977 32.3901 24.1483C31.94 24.2988 31.4555 24.3126 30.9976 24.1878C30.5398 24.063 30.1292 23.8053 29.8178 23.4472C29.5064 23.0892 29.3081 22.6468 29.248 22.1761C29.1879 21.7054 29.2687 21.2274 29.4802 20.8026C29.6917 20.3778 30.0244 20.0252 30.4362 19.7894C30.8481 19.5537 31.3205 19.4453 31.794 19.4779C32.2674 19.5106 32.7205 19.6829 33.096 19.973C33.3456 20.1659 33.5548 20.406 33.7115 20.6798C33.8682 20.9535 33.9695 21.2555 34.0094 21.5684C34.0493 21.8813 34.0272 22.199 33.9442 22.5033C33.8613 22.8077 33.7192 23.0927 33.526 23.342ZM36.426 18.187C36.1354 18.5622 35.7401 18.8427 35.2901 18.9933C34.84 19.1438 34.3555 19.1576 33.8976 19.0328C33.4398 18.908 33.0292 18.6503 32.7178 18.2922C32.4064 17.9342 32.2081 17.4918 32.148 17.0211C32.0879 16.5504 32.1688 16.0724 32.3802 15.6476C32.5917 15.2228 32.9244 14.8702 33.3362 14.6344C33.7481 14.3987 34.2205 14.2903 34.694 14.3229C35.1674 14.3556 35.6205 14.5279 35.996 14.818C36.2455 15.0109 36.4546 15.2512 36.6112 15.5249C36.7679 15.7987 36.869 16.1007 36.9089 16.4136C36.9487 16.7265 36.9265 17.0442 36.8434 17.3485C36.7604 17.6528 36.6192 17.9377 36.426 18.187ZM48.703 15.246C48.9937 14.8709 49.3891 14.5905 49.8392 14.4401C50.2893 14.2896 50.7738 14.276 51.2316 14.4009C51.6895 14.5258 52.1 14.7837 52.4113 15.1418C52.7226 15.5 52.9208 15.9424 52.9807 16.4131C53.0406 16.8839 52.9597 17.3618 52.7481 17.7866C52.5364 18.2113 52.2036 18.5638 51.7917 18.7995C51.3798 19.0351 50.9073 19.1434 50.4339 19.1105C49.9605 19.0777 49.5074 18.9053 49.132 18.615C48.8824 18.4222 48.6732 18.182 48.5165 17.9083C48.3598 17.6345 48.2585 17.3326 48.2186 17.0197C48.1787 16.7068 48.2008 16.3891 48.2838 16.0847C48.3667 15.7804 48.5098 15.4954 48.703 15.246ZM43.535 15.246C43.8258 14.871 44.2213 14.5906 44.6714 14.4403C45.1215 14.29 45.6061 14.2765 46.0639 14.4016C46.5217 14.5266 46.9321 14.7846 47.2434 15.1428C47.5546 15.5011 47.7526 15.9435 47.8124 16.4143C47.8722 16.8851 47.7911 17.363 47.5794 17.7877C47.3676 18.2124 47.0347 18.5648 46.6227 18.8003C46.2107 19.0358 45.7382 19.1439 45.2648 19.111C44.7914 19.078 44.3383 18.9054 43.963 18.615C43.7135 18.422 43.5046 18.1818 43.348 17.9079C43.1915 17.6341 43.0904 17.3321 43.0507 17.0192C43.0109 16.7063 43.0332 16.3887 43.1164 16.0844C43.1995 15.7802 43.3417 15.4953 43.535 15.246ZM46.235 23.769C45.8599 23.4782 45.5795 23.0827 45.4292 22.6325C45.2788 22.1823 45.2654 21.6977 45.3905 21.2398C45.5156 20.782 45.7736 20.3715 46.132 20.0603C46.4903 19.7491 46.9329 19.5511 47.4037 19.4914C47.8746 19.4317 48.3526 19.513 48.7773 19.7249C49.2019 19.9368 49.5543 20.2699 49.7896 20.6821C50.025 21.0942 50.1329 21.5669 50.0997 22.0404C50.0665 22.5138 49.8936 22.9668 49.603 23.342C49.4099 23.5913 49.1697 23.8 48.8959 23.9564C48.6221 24.1128 48.3202 24.2137 48.0075 24.2533C47.6947 24.293 47.3772 24.2706 47.0731 24.1875C46.7689 24.1044 46.4842 23.9622 46.235 23.769ZM52.076 28.394C51.7853 28.7692 51.3898 29.0497 50.9397 29.2001C50.4896 29.3506 50.0049 29.3642 49.547 29.2392C49.0892 29.1142 48.6786 28.8563 48.3673 28.4981C48.056 28.1398 47.8579 27.6973 47.7981 27.2265C47.7383 26.7556 47.8194 26.2776 48.0312 25.8529C48.243 25.4282 48.576 25.0757 48.988 24.8402C49.4001 24.6047 49.8727 24.4967 50.3462 24.5297C50.8197 24.5628 51.2727 24.7355 51.648 25.026C51.8973 25.219 52.1062 25.4592 52.2626 25.733C52.4191 26.0067 52.5201 26.3086 52.5598 26.6213C52.5996 26.9341 52.5773 27.2517 52.4943 27.5558C52.4113 27.86 52.2691 28.1448 52.076 28.394ZM54.768 23.342C54.4772 23.717 54.0817 23.9974 53.6316 24.1477C53.1815 24.298 52.6969 24.3115 52.2391 24.1865C51.7813 24.0614 51.3709 23.8035 51.0597 23.4452C50.7484 23.087 50.5504 22.6445 50.4906 22.1737C50.4308 21.703 50.5119 21.225 50.7236 20.8003C50.9354 20.3757 51.2683 20.0233 51.6803 19.7877C52.0923 19.5522 52.5648 19.4441 53.0382 19.4771C53.5117 19.5101 53.9647 19.6826 54.34 19.973C54.5895 20.166 54.7984 20.4063 54.955 20.6801C55.1115 20.9539 55.2126 21.2559 55.2523 21.5688C55.2921 21.8817 55.2698 22.1994 55.1866 22.5036C55.1035 22.8079 54.9613 23.0928 54.768 23.342ZM57.668 18.187C57.3775 18.5622 56.9823 18.8429 56.5323 18.9936C56.0823 19.1442 55.5978 19.1581 55.1399 19.0334C54.682 18.9088 54.2714 18.6512 53.9599 18.2932C53.6483 17.9353 53.4499 17.493 53.3897 17.0223C53.3295 16.5516 53.4102 16.0736 53.6215 15.6487C53.8329 15.2239 54.1655 14.8712 54.5772 14.6353C54.989 14.3994 55.4614 14.2908 55.9348 14.3234C56.4082 14.3559 56.8614 14.528 57.237 14.818C57.4867 15.0108 57.6959 15.2509 57.8528 15.5246C58.0096 15.7983 58.1109 16.1003 58.1509 16.4132C58.191 16.7261 58.1689 17.0438 58.086 17.3482C58.0032 17.6525 57.8611 17.9376 57.668 18.187ZM28.721 7.86702C28.444 4.33702 34.603 3.99102 33.891 -0.000976562C33.4918 0.000713255 33.0941 0.0466608 32.705 0.136024C32.699 1.82002 31.648 2.80702 30.445 3.76702C29.2604 4.68705 28.4697 6.02289 28.233 7.50402C28.3739 7.61699 28.5226 7.71991 28.678 7.81202" fill="#471F3D"></path><path d="M18.328 2.51094C18.371 3.91094 18.628 5.59694 20.211 6.29994C20.8632 6.53614 21.5643 6.6049 22.25 6.49994C22.289 6.59994 22.315 6.69994 22.361 6.78794C22.4845 7.03988 22.6602 7.26265 22.8764 7.44144C23.0926 7.62024 23.3444 7.75097 23.615 7.82494C24.4694 7.99229 25.3555 7.85051 26.115 7.42494C26.2711 7.67012 26.4672 7.88746 26.695 8.06794C26.9348 8.25865 27.2298 8.36691 27.5361 8.37663C27.8423 8.38636 28.1435 8.29704 28.395 8.12194L28.061 7.60394C27.9143 7.71045 27.7362 7.76485 27.555 7.75851C27.3738 7.75217 27.1999 7.68544 27.061 7.56894C26.894 7.43929 26.7498 7.28283 26.634 7.10594C26.8812 6.88701 27.0796 6.61849 27.2162 6.31785C27.3529 6.0172 27.4247 5.69117 27.427 5.36094C27.429 5.18881 27.4027 5.01752 27.349 4.85394C27.2862 4.64542 27.1491 4.46715 26.9638 4.35289C26.7784 4.23863 26.5575 4.19631 26.343 4.23394C26.1448 4.25673 25.9589 4.34181 25.8121 4.47694C25.6653 4.61207 25.5651 4.79028 25.526 4.98594C25.4853 5.14571 25.4654 5.31008 25.467 5.47494C25.4802 5.96658 25.5964 6.44999 25.808 6.89394C25.1931 7.23731 24.4777 7.35542 23.785 7.22794C23.5963 7.17736 23.4207 7.08644 23.2705 6.96144C23.1203 6.83645 22.999 6.68036 22.915 6.50394C22.905 6.48294 22.88 6.43194 22.856 6.37794C23.1135 6.31332 23.363 6.22042 23.6 6.10094C23.8754 5.97081 24.1164 5.77805 24.304 5.53808C24.4915 5.29811 24.6203 5.01758 24.68 4.71894C24.6977 4.62428 24.7071 4.52824 24.708 4.43194C24.7151 4.27018 24.6823 4.10915 24.6126 3.96302C24.5428 3.8169 24.4382 3.69015 24.308 3.59394C24.0916 3.46336 23.8433 3.39518 23.5906 3.39695C23.3379 3.39871 23.0905 3.47035 22.876 3.60394C22.5844 3.7618 22.3436 3.99911 22.1814 4.28833C22.0193 4.57756 21.9425 4.90683 21.96 5.23794C21.9659 5.46332 21.9968 5.68735 22.052 5.90594C21.5163 5.97207 20.9726 5.9139 20.463 5.73594C19.457 5.28994 19.003 4.32094 18.947 2.49194L18.328 2.51094ZM22.57 5.21994C22.5565 5.0021 22.6059 4.78498 22.7123 4.5944C22.8186 4.40382 22.9775 4.24781 23.17 4.14494C23.2838 4.06953 23.4154 4.02507 23.5516 4.01595C23.6879 4.00683 23.8241 4.03337 23.947 4.09294C23.9965 4.13428 24.0352 4.18697 24.06 4.24652C24.0847 4.30607 24.0947 4.37071 24.089 4.43494C24.0887 4.49372 24.0827 4.55233 24.071 4.60994C24.0272 4.81679 23.9352 5.01037 23.8024 5.17493C23.6696 5.33949 23.4999 5.47038 23.307 5.55694C23.0997 5.66177 22.8809 5.74198 22.655 5.79594C22.6047 5.60795 22.5775 5.41452 22.574 5.21994H22.57ZM26.078 5.46794C26.0764 5.35908 26.0892 5.25047 26.116 5.14494C26.19 4.86894 26.339 4.85294 26.402 4.84494C26.4393 4.83457 26.4783 4.83178 26.5167 4.83672C26.5551 4.84166 26.5921 4.85425 26.6256 4.87372C26.659 4.8932 26.6883 4.91919 26.7115 4.95014C26.7348 4.98109 26.7516 5.01639 26.761 5.05394C26.7921 5.15084 26.807 5.2522 26.805 5.35394C26.7941 5.79802 26.625 6.2236 26.328 6.55394C26.1766 6.2114 26.0918 5.84319 26.078 5.46894V5.46794Z" fill="#A3BD0B"></path><path d="M121.572 52.8859C121.438 53.0195 121.279 53.1255 121.105 53.1977C120.93 53.27 120.743 53.3071 120.553 53.3069C120.364 53.3068 120.177 53.2694 120.002 53.1969C119.828 53.1244 119.669 53.0182 119.536 52.8844C119.402 52.7506 119.296 52.5918 119.224 52.417C119.151 52.2422 119.114 52.055 119.114 51.8659C119.115 51.6767 119.152 51.4895 119.225 51.3149C119.297 51.1402 119.403 50.9815 119.537 50.8479C119.668 50.7123 119.825 50.6051 119.999 50.5328C120.173 50.4606 120.361 50.4249 120.549 50.4279C120.739 50.4249 120.927 50.4606 121.103 50.5328C121.279 50.605 121.438 50.7122 121.571 50.8479C121.707 50.9791 121.815 51.1371 121.888 51.3119C121.961 51.4867 121.996 51.6746 121.993 51.8639C121.996 52.0539 121.96 52.2425 121.888 52.4182C121.815 52.5939 121.708 52.7531 121.572 52.8859ZM119.672 50.9859C119.471 51.1886 119.346 51.4547 119.319 51.739C119.292 52.0232 119.364 52.3081 119.524 52.545C119.683 52.782 119.92 52.9564 120.193 53.0386C120.466 53.1208 120.76 53.1057 121.024 52.9959C121.287 52.8861 121.505 52.6883 121.639 52.4363C121.773 52.1842 121.816 51.8934 121.76 51.6134C121.703 51.3335 121.552 51.0815 121.331 50.9006C121.11 50.7196 120.834 50.6208 120.548 50.6209C120.385 50.6197 120.223 50.6516 120.073 50.7149C119.923 50.7782 119.787 50.8714 119.674 50.9889L119.672 50.9859ZM120.521 51.0659C120.667 51.0589 120.814 51.0782 120.953 51.1229C121.032 51.1544 121.098 51.2102 121.142 51.2823C121.186 51.3543 121.206 51.4387 121.199 51.5229C121.203 51.5841 121.191 51.6453 121.163 51.7002C121.136 51.7551 121.095 51.802 121.044 51.8359C120.974 51.8763 120.896 51.9018 120.816 51.9109C120.87 51.9164 120.922 51.9332 120.969 51.96C121.015 51.9869 121.056 52.0233 121.088 52.0669C121.141 52.1384 121.171 52.2241 121.175 52.3129V52.4289C121.175 52.4649 121.175 52.5039 121.175 52.5459C121.174 52.5743 121.178 52.6026 121.189 52.6289L121.197 52.6479H120.937C120.937 52.6429 120.937 52.6379 120.937 52.6329C120.935 52.6271 120.933 52.621 120.931 52.6149L120.925 52.5639V52.4389C120.935 52.3708 120.926 52.3014 120.899 52.2379C120.873 52.1744 120.83 52.1191 120.775 52.0779C120.678 52.0364 120.572 52.0189 120.467 52.0269H120.247V52.6489H119.968V51.0709H120.521V51.0659ZM120.821 51.3149C120.715 51.2683 120.599 51.2481 120.484 51.2559H120.247V51.8289H120.499C120.588 51.8331 120.678 51.8209 120.763 51.7929C120.806 51.7723 120.844 51.741 120.872 51.702C120.9 51.663 120.918 51.6176 120.924 51.5699C120.929 51.5222 120.923 51.4738 120.905 51.4292C120.887 51.3847 120.858 51.3453 120.821 51.3149Z" fill="#471F3D"></path></g><defs><clipPath id="clip0_1_570"><rect width="121.994" height="60.212" fill="white"></rect></clipPath></defs></svg> 